<?xml version="1.0" standalone="no"?><!-- Generator: Gravit.io --><svg xmlns="http://www.w3.org/2000/svg" xmlns:xlink="http://www.w3.org/1999/xlink" style="isolation:isolate" viewBox="0 0 800 800" width="800" height="800"><g id="null"><rect x="336.714" y="354.296" width="129.704" height="95.505" transform="matrix(1,0,0,1,0,0)" fill="rgb(254,215,16)"/><path d=" M 400.227 247.917 C 459.956 247.917 508.654 199.377 508.654 139.49 C 508.654 137.126 508.497 134.919 508.497 132.555 L 508.024 127.197 L 507.551 123.887 C 507.394 123.73 507.078 123.73 506.921 123.572 C 506.606 123.415 506.133 123.257 505.818 123.099 C 505.502 122.942 505.187 122.784 505.03 122.627 L 504.714 122.311 L 504.084 121.996 C 500.459 119.632 496.834 117.584 493.052 115.535 C 492.422 115.22 491.634 114.747 491.003 114.432 C 489.585 113.644 488.009 112.856 486.591 112.068 L 485.645 111.595 C 484.069 110.807 482.651 110.176 481.075 109.388 L 479.183 108.443 C 477.765 107.812 476.347 107.182 474.771 106.552 C 474.14 106.236 473.352 105.921 472.722 105.764 C 471.619 105.291 470.358 104.818 469.255 104.345 C 467.994 103.872 466.733 103.4 465.315 102.927 C 464.054 102.454 462.793 101.981 461.532 101.666 C 461.06 101.508 460.744 101.351 460.272 101.193 C 458.538 100.563 456.804 100.09 455.071 99.617 C 454.598 99.46 454.283 99.302 453.81 99.302 L 450.343 98.356 L 447.033 97.411 C 445.457 96.938 443.881 96.623 442.148 96.308 L 440.099 95.835 C 438.838 95.52 437.42 95.362 436.159 95.047 C 435.056 94.889 434.11 94.732 433.007 94.417 C 431.431 94.101 429.855 93.944 428.279 93.629 C 427.964 93.629 427.649 93.629 427.491 93.471 C 425.758 93.313 424.182 92.998 422.448 92.841 C 421.818 92.841 421.187 92.683 420.399 92.683 C 419.769 92.683 419.138 92.525 418.508 92.525 C 416.932 92.368 415.514 92.21 413.938 92.21 C 412.362 92.053 410.628 92.053 409.052 91.895 L 407.318 91.895 C 405.743 91.895 404.167 91.895 402.748 91.737 L 400.542 91.737 C 398.808 91.737 397.075 91.737 395.183 91.895 L 393.607 91.895 C 392.031 91.895 390.455 92.053 388.879 92.21 C 387.303 92.368 385.885 92.368 384.309 92.525 C 383.364 92.683 382.418 92.683 381.472 92.841 C 379.896 92.998 378.32 93.156 376.744 93.471 C 376.272 93.471 375.799 93.629 375.168 93.629 C 374.853 93.629 374.38 93.786 374.065 93.786 L 368.392 94.732 C 367.761 94.889 367.288 94.889 366.658 95.047 L 361.93 95.993 L 359.566 96.465 C 357.99 96.781 356.414 97.096 354.996 97.569 C 354.681 97.569 354.523 97.726 354.208 97.726 C 352.789 98.041 351.213 98.514 349.795 98.987 C 348.849 99.302 347.904 99.46 346.958 99.775 L 342.23 101.193 L 340.812 101.666 C 339.394 102.139 338.133 102.612 336.714 103.084 C 335.769 103.4 334.823 103.715 333.878 104.188 C 332.774 104.66 331.514 105.133 330.41 105.448 C 329.465 105.764 328.677 106.236 327.731 106.552 C 326.155 107.182 324.579 107.812 323.003 108.6 C 322.688 108.758 322.373 108.916 322.058 108.916 C 320.482 109.704 318.906 110.334 317.33 111.122 C 316.542 111.437 315.911 111.752 315.123 112.225 C 313.705 113.013 312.129 113.801 310.711 114.589 C 310.395 114.747 310.08 114.904 309.923 115.062 C 308.189 116.008 306.613 116.953 304.879 117.899 C 304.407 118.214 303.776 118.529 303.303 118.844 C 301.57 119.947 299.836 120.893 298.103 121.996 L 292.587 127.827 C 292.114 131.767 291.956 135.707 291.956 139.647 C 291.956 141.538 291.956 143.43 292.114 145.163 C 294.951 202.214 342.388 247.917 400.227 247.917 L 400.227 247.917 Z " fill="rgb(0,170,209)"/><path d=" M 711.011 405.043 L 618.816 313.006 L 604.632 298.979 C 597.225 291.572 589.502 284.953 581.465 278.649 L 581.465 255.797 C 581.465 221.283 560.977 191.34 531.664 177.629 C 537.737 156.565 538.656 134.349 534.343 112.856 C 521.893 50.289 466.418 3.009 400.227 3.009 C 334.035 3.009 278.718 50.289 266.11 112.856 C 261.797 134.349 262.716 156.565 268.789 177.629 C 238.324 191.803 218.838 222.353 218.831 255.955 L 218.831 278.807 C 210.793 284.953 202.913 291.887 195.506 299.137 L 182.583 312.06 L 89.127 405.201 C 65.803 426.477 63.439 463.039 84.084 486.837 C 94.17 498.657 108.512 505.591 124.272 506.694 C 140.347 507.797 156.422 502.281 168.399 491.565 L 182.425 478.957 L 218.516 446.649 L 218.516 498.184 C 218.516 530.649 236.482 559.017 263.116 573.674 L 263.116 700.698 C 240.504 707.045 224.862 727.643 224.819 751.129 C 224.819 776.345 245.307 796.991 270.681 796.991 L 343.018 796.991 C 372.647 796.991 396.759 772.878 396.759 743.25 L 396.759 605.036 C 396.759 603.382 398.1 602.041 399.754 602.041 C 401.408 602.041 402.748 603.382 402.748 605.036 L 402.748 743.25 C 402.748 772.878 426.861 796.991 456.489 796.991 L 528.827 796.991 C 554.043 796.991 574.688 776.503 574.688 751.129 C 574.688 727.174 558.455 706.844 536.549 700.698 L 536.549 573.674 C 563.958 558.433 580.965 529.545 580.992 498.184 L 580.992 446.492 L 618.343 479.902 L 631.266 491.407 C 643.243 502.124 659.318 507.64 675.394 506.537 C 691.153 505.591 705.495 498.499 715.581 486.679 C 736.542 462.724 734.335 426.161 711.011 405.043 Z  M 553.097 255.797 L 553.097 260.053 C 535.131 249.966 515.904 242.402 495.889 237.358 C 505.895 227.563 514.345 216.296 520.947 203.947 C 539.859 213.403 553.097 233.103 553.097 255.797 L 553.097 255.797 Z  M 328.204 58.642 C 328.362 58.484 328.519 58.326 328.834 58.169 L 329.15 57.854 C 348.219 41.306 373.12 31.062 400.227 31.062 C 427.176 31.062 451.761 40.991 470.831 57.223 C 477.607 63.054 483.754 69.831 488.955 77.081 C 491.476 80.705 493.84 84.488 496.046 88.585 C 435.516 59.047 364.692 59.338 304.407 89.373 C 310.238 77.869 318.433 67.467 328.204 58.642 L 328.204 58.642 Z  M 292.587 127.67 L 298.103 121.839 C 299.521 120.893 301.097 119.947 302.515 119.002 C 302.673 118.844 302.988 118.687 303.303 118.529 C 303.776 118.214 304.407 117.899 304.879 117.584 C 305.352 117.426 305.667 117.111 306.14 116.953 C 307.401 116.165 308.662 115.535 309.923 114.904 C 310.238 114.747 310.553 114.589 310.711 114.432 C 311.341 114.116 311.814 113.801 312.444 113.486 C 313.075 113.171 313.547 112.856 314.178 112.54 L 314.335 112.54 L 315.281 112.068 C 316.069 111.752 316.699 111.28 317.487 110.964 C 317.96 110.807 318.433 110.492 318.906 110.334 C 320.009 109.861 321.112 109.231 322.215 108.758 L 322.373 108.758 C 322.688 108.6 323.003 108.443 323.318 108.443 C 323.791 108.128 324.422 107.97 324.894 107.655 C 325.525 107.34 326.313 107.024 327.101 106.709 C 327.416 106.552 327.731 106.394 328.046 106.394 C 328.992 106.079 329.78 105.606 330.726 105.291 C 331.829 104.818 332.932 104.345 334.193 104.03 C 335.138 103.715 336.084 103.4 337.03 102.927 C 337.502 102.769 337.818 102.612 338.133 102.454 C 338.921 102.139 339.551 101.981 340.339 101.666 C 340.654 101.508 340.812 101.508 341.127 101.351 L 342.546 100.878 C 342.703 100.878 342.861 100.72 343.018 100.72 C 343.334 100.563 343.649 100.563 343.964 100.405 C 344.909 100.09 345.697 99.932 346.643 99.617 C 346.958 99.617 347.116 99.46 347.431 99.46 C 348.377 99.144 349.322 98.829 350.268 98.672 L 351.686 98.199 C 352.632 97.884 353.735 97.726 354.681 97.411 C 354.996 97.411 355.153 97.253 355.469 97.253 C 356.414 97.096 357.36 96.781 358.148 96.623 L 360.039 96.15 L 362.403 95.677 L 362.561 95.677 C 363.506 95.52 364.452 95.362 365.24 95.205 C 365.87 95.047 366.343 95.047 366.973 94.889 C 367.604 94.732 368.076 94.732 368.707 94.574 C 368.864 94.574 369.18 94.417 369.337 94.417 L 369.81 94.417 C 371.228 94.101 372.489 93.944 373.908 93.786 L 374.38 93.786 C 374.696 93.786 375.168 93.629 375.484 93.629 L 375.799 93.629 C 376.272 93.629 376.587 93.471 377.06 93.471 C 378.636 93.313 380.212 92.998 381.788 92.841 C 382.733 92.683 383.679 92.683 384.624 92.525 C 386.2 92.368 387.619 92.21 389.195 92.21 L 390.298 92.21 C 391.243 92.21 392.189 92.053 393.135 92.053 L 409.682 92.053 C 410.47 92.053 411.416 92.053 412.362 92.21 L 412.834 92.21 C 413.307 92.21 413.78 92.21 414.253 92.368 C 415.829 92.525 417.247 92.683 418.823 92.683 C 419.296 92.683 419.926 92.841 420.399 92.841 L 420.714 92.841 C 421.345 92.841 421.975 92.998 422.763 92.998 C 423.236 92.998 423.709 93.156 424.182 93.156 C 424.97 93.313 425.6 93.313 426.388 93.471 C 426.861 93.471 427.333 93.629 427.806 93.629 C 428.121 93.629 428.437 93.629 428.594 93.786 L 428.752 93.786 C 429.382 93.944 430.013 93.944 430.801 94.101 C 431.431 94.259 432.219 94.259 432.849 94.417 C 433.007 94.417 433.165 94.417 433.322 94.574 C 434.425 94.732 435.371 94.889 436.474 95.205 C 436.789 95.205 437.105 95.362 437.42 95.362 C 438.365 95.52 439.311 95.677 440.099 95.835 L 440.414 95.835 L 442.463 96.308 C 442.621 96.308 442.778 96.308 442.936 96.465 L 446.718 97.411 C 446.876 97.411 447.191 97.569 447.349 97.569 L 450.658 98.514 C 451.761 98.829 452.707 98.987 453.81 99.302 C 453.968 99.302 454.125 99.302 454.125 99.46 C 454.598 99.617 454.913 99.617 455.386 99.775 C 455.701 99.932 456.174 99.932 456.489 100.09 L 458.223 100.563 C 459.011 100.72 459.799 101.036 460.587 101.351 C 461.06 101.508 461.375 101.666 461.848 101.824 C 462.636 102.139 463.581 102.454 464.369 102.612 C 464.842 102.769 465.157 102.927 465.63 103.084 C 466.891 103.557 468.152 104.03 469.57 104.503 C 470.043 104.66 470.358 104.818 470.831 104.976 C 471.619 105.291 472.249 105.606 473.037 105.921 C 473.667 106.236 474.455 106.552 475.086 106.709 C 476.504 107.34 478.08 107.97 479.499 108.6 L 481.39 109.546 C 481.863 109.704 482.335 110.019 482.966 110.176 C 483.754 110.649 484.699 110.964 485.487 111.437 C 485.645 111.595 485.803 111.595 485.96 111.752 L 486.906 112.225 C 487.221 112.383 487.694 112.54 488.009 112.698 C 488.639 113.013 489.427 113.486 490.058 113.801 C 490.53 113.959 490.846 114.274 491.318 114.432 C 491.949 114.747 492.737 115.22 493.367 115.535 C 493.682 115.692 493.998 115.85 494.155 116.008 C 494.155 116.008 494.313 116.008 494.313 116.165 C 495.574 116.953 496.992 117.741 498.253 118.372 C 500.302 119.475 502.193 120.735 504.242 121.996 L 504.872 122.311 L 505.187 122.627 C 505.502 122.784 505.818 122.942 505.975 123.099 C 506.29 123.257 506.763 123.415 507.078 123.572 C 507.236 123.73 507.551 123.73 507.709 123.887 L 508.182 127.197 L 508.654 132.555 C 508.812 134.762 508.97 137.126 508.97 139.49 C 508.97 199.22 460.429 247.917 400.542 247.917 C 342.703 247.917 295.266 202.371 292.272 145.163 C 292.114 143.272 292.114 141.538 292.114 139.647 C 291.956 135.55 292.114 131.61 292.587 127.67 L 292.587 127.67 Z  M 247.356 255.797 C 247.356 232.946 260.594 213.246 279.664 203.79 C 286.283 216.24 294.793 227.43 304.722 237.201 C 284.707 242.244 265.48 249.809 247.356 259.895 L 247.356 255.797 Z  M 182.741 440.66 L 149.803 470.131 C 144.308 474.92 137.379 477.747 130.103 478.169 L 126.478 478.169 C 124.587 478.011 122.696 477.696 120.804 477.223 C 118.598 476.593 116.392 475.805 114.501 474.859 C 111.191 473.126 108.354 470.919 105.833 468.083 C 95.116 455.632 96.377 436.72 108.669 425.689 L 109.142 425.216 L 117.337 417.021 L 161.622 372.893 L 182.898 399.842 L 201.81 423.797 L 182.741 440.66 Z  M 247.356 498.184 L 247.356 420.961 L 263.589 406.462 L 263.589 538.371 C 253.145 527.604 247.32 513.184 247.356 498.184 Z  M 271.153 768.623 C 268.159 768.623 265.322 767.835 262.801 766.574 C 261.382 765.786 259.964 764.683 258.703 763.58 C 255.551 760.428 253.66 756.015 253.66 751.287 C 253.66 743.88 257.127 737.103 262.485 732.69 C 266.583 729.223 271.941 727.174 277.773 727.174 C 285.652 727.174 291.956 720.871 291.956 712.991 L 291.956 666.499 L 369.022 666.499 L 369.022 743.092 C 369.022 751.76 364.767 759.325 358.148 763.895 C 354.05 766.889 349.007 768.465 343.491 768.465 L 271.153 768.623 L 271.153 768.623 Z  M 456.962 768.623 C 442.936 768.623 431.589 757.276 431.589 743.25 L 431.589 666.657 L 508.654 666.657 L 508.654 713.148 C 508.654 717.088 510.23 720.555 512.752 723.234 C 515.273 725.756 518.898 727.332 522.838 727.332 C 536.076 727.332 546.793 738.049 546.793 751.287 C 546.776 760.88 539.05 768.677 529.457 768.78 L 456.962 768.78 L 456.962 768.623 L 456.962 768.623 Z  M 553.097 498.184 C 553.097 513.629 546.951 527.812 537.022 538.214 L 537.022 406.777 L 553.097 421.118 L 553.097 498.184 Z  M 572.324 400.315 L 532.294 364.383 C 528.197 360.6 522.208 359.655 517.007 362.019 C 511.96 364.351 508.708 369.382 508.654 374.942 L 508.654 638.131 L 431.589 638.131 L 431.589 604.878 C 431.589 587.542 417.562 573.516 400.227 573.516 C 382.891 573.516 368.864 587.542 368.864 604.878 L 368.864 638.131 L 291.956 638.131 L 291.956 374.784 C 291.956 369.268 288.647 364.068 283.604 361.861 C 278.561 359.497 272.572 360.6 268.317 364.225 L 222.928 404.886 L 182.898 353.981 L 181.953 352.72 L 182.898 351.775 L 215.836 318.994 C 248.774 286.214 290.696 265.726 336.084 260.053 C 355.87 270.615 377.955 276.136 400.384 276.128 C 423.551 276.128 445.457 270.296 464.684 260.053 C 509.915 265.726 551.836 286.214 584.617 318.837 L 617.712 351.775 L 572.324 400.315 L 572.324 400.315 Z  M 694.463 468.24 C 689.667 473.83 682.885 477.334 675.551 478.011 C 674.921 478.011 674.448 478.169 673.818 478.169 C 665.307 478.642 656.797 475.805 650.493 470.131 L 618.658 441.764 L 594.861 420.488 L 593.442 419.227 L 614.876 396.375 L 618.658 392.278 L 622.283 388.338 L 637.57 371.947 L 690.365 424.585 L 690.996 425.216 L 691.153 425.373 L 691.626 425.846 C 703.919 436.878 705.18 455.79 694.463 468.24 L 694.463 468.24 Z  M 480.602 325.929 L 322.531 325.929 C 314.651 325.929 308.347 332.233 308.347 340.113 L 308.347 463.985 C 308.347 471.865 314.651 478.169 322.531 478.169 L 480.602 478.169 C 488.482 478.169 494.786 471.865 494.786 463.985 L 494.786 340.113 C 494.786 332.233 488.482 325.929 480.602 325.929 L 480.602 325.929 Z  M 466.418 354.296 L 466.418 449.801 L 336.714 449.801 L 336.714 354.296 L 466.418 354.296 Z " fill="rgb(45,48,51)"/></g></svg>