<?xml version="1.0" standalone="no"?><!-- Generator: Gravit.io --><svg xmlns="http://www.w3.org/2000/svg" xmlns:xlink="http://www.w3.org/1999/xlink" style="isolation:isolate" viewBox="0 0 800 800" width="800" height="800"><g id="null"><path d=" M 168.205 674.831 C 213.67 682.673 260.029 667.116 291.561 633.437 C 292.821 631.092 294.716 629.027 296.885 627.351 C 311.776 609.418 322.399 587.502 326.644 562.944 C 339.521 488.442 289.453 417.245 214.786 404.339 C 140.118 391.434 69.086 441.53 56.181 516.198 C 43.275 590.865 93.703 661.954 168.205 674.831 Z  M 286.706 570.567 C 283.063 591.644 263.024 605.777 241.947 602.134 C 220.869 598.491 206.736 578.451 210.379 557.374 C 214.022 536.297 234.062 522.164 255.139 525.807 C 276.216 529.45 290.349 549.49 286.706 570.567 Z  M 164.089 470.254 C 167.732 449.181 187.971 434.907 209.044 438.549 C 230.116 442.191 244.39 462.431 240.748 483.504 C 237.106 504.576 216.867 518.85 195.794 515.208 C 174.721 511.566 160.418 491.493 164.089 470.254 Z  M 64.793 543.49 C 69.467 516.443 95.35 498.189 122.396 502.864 C 149.443 507.539 167.697 533.421 163.022 560.468 C 158.347 587.514 132.465 605.768 105.418 601.093 C 78.372 596.419 60.118 570.536 64.793 543.49 Z " fill="rgb(254,215,16)"/><path d=" M 323.315 656.356 L 704.161 387.759 C 712.592 381.467 714.478 369.606 708.415 361.009 C 702.352 352.412 690.546 350.208 681.79 356.038 L 362.634 581.127 C 363.625 577.368 364.285 573.551 364.973 569.569 C 381.492 473.994 317.122 382.724 221.548 366.205 C 215.076 365.086 208.714 364.328 202.294 363.902 L 548.695 119.598 C 557.125 113.307 559.012 101.445 552.949 92.849 C 546.886 84.252 535.079 82.048 526.323 87.877 L 119.399 374.866 C 116.675 376.787 114.723 379.184 113.24 381.833 C 64.815 405.931 27.969 452.024 18.075 509.27 C 1.555 604.844 65.925 696.115 161.5 712.634 C 223.832 723.749 284.101 700.331 323.315 656.356 L 323.315 656.356 Z  M 214.923 404.534 C 289.425 417.411 339.686 488.471 326.781 563.139 C 322.536 587.696 311.913 609.613 297.022 627.546 C 294.687 629.193 292.958 631.286 291.698 633.632 C 260.166 667.311 213.807 682.867 168.342 675.026 C 93.84 662.149 43.578 591.089 56.484 516.421 C 69.389 441.753 140.421 391.657 214.923 404.534 Z  M 240.914 483.532 C 244.556 462.459 230.282 442.22 209.21 438.578 C 188.137 434.936 167.897 449.21 164.255 470.283 C 160.613 491.355 174.887 511.595 195.96 515.237 C 217.033 518.879 237.243 504.771 240.914 483.532 Z  M 190.638 474.842 C 191.756 468.371 197.984 463.979 204.455 465.098 C 210.926 466.216 215.318 472.444 214.2 478.915 C 213.081 485.386 206.854 489.778 200.383 488.66 C 193.911 487.541 189.491 481.48 190.638 474.842 Z  M 163.188 560.496 C 167.863 533.45 149.609 507.567 122.562 502.893 C 95.516 498.218 69.633 516.472 64.958 543.518 C 60.284 570.565 78.538 596.447 105.584 601.122 C 132.631 605.797 158.513 587.543 163.188 560.496 Z  M 91.341 548.078 C 93.492 535.634 105.363 527.261 117.808 529.412 C 130.252 531.563 138.624 543.434 136.474 555.879 C 134.323 568.324 122.452 576.696 110.007 574.545 C 97.562 572.394 89.19 560.523 91.341 548.078 Z  M 210.379 557.374 C 206.736 578.451 220.869 598.491 241.947 602.134 C 263.024 605.777 283.063 591.644 286.706 570.567 C 290.349 549.49 276.216 529.45 255.139 525.807 C 234.062 522.164 214.022 536.297 210.379 557.374 Z  M 260.158 565.978 C 259.039 572.449 253.006 576.704 246.535 575.585 C 240.064 574.467 235.809 568.434 236.928 561.963 C 238.046 555.492 244.079 551.237 250.55 552.356 C 257.021 553.474 261.247 559.673 260.158 565.978 Z  M 439.85 395.392 C 435.568 398.411 432.717 403.045 431.885 407.857 C 431.054 412.669 432.018 417.962 435.204 422.272 C 441.38 431.029 453.493 433.123 462.25 426.947 L 776.707 205.318 C 785.137 199.026 787.024 187.165 780.961 178.568 C 774.898 169.971 763.091 167.767 754.335 173.597 L 439.85 395.392 L 439.85 395.392 Z  M 387.668 316.651 C 383.387 319.671 380.536 324.305 379.704 329.117 C 378.872 333.928 379.837 339.222 383.022 343.532 C 389.199 352.289 401.311 354.383 410.069 348.206 L 686.411 153.312 C 694.842 147.021 696.728 135.159 690.665 126.563 C 684.602 117.966 672.796 115.762 664.039 121.592 L 387.668 316.651 Z " fill="rgb(45,48,51)"/></g></svg>