<?xml version="1.0" standalone="no"?><!-- Generator: Gravit.io --><svg xmlns="http://www.w3.org/2000/svg" xmlns:xlink="http://www.w3.org/1999/xlink" style="isolation:isolate" viewBox="0 0 800 500" width="800" height="500"><g id="null"><path d=" M 154.964 431.677 C 153.29 429.54 153.669 426.421 155.807 424.747 L 179.242 406.394 C 179.12 406.239 179.029 406.122 178.946 405.936 C 178.824 405.781 178.694 405.695 178.572 405.539 L 172.12 397.3 L 140.99 421.679 C 138.852 423.353 135.733 422.974 134.059 420.836 C 132.386 418.699 132.765 415.58 134.902 413.906 L 166.033 389.527 L 158.241 379.578 L 134.806 397.931 C 132.668 399.605 129.55 399.225 127.876 397.088 C 126.202 394.95 126.581 391.832 128.719 390.158 L 144.226 378.014 L 138.96 371.29 C 136.823 372.964 133.704 372.585 132.03 370.447 C 126.947 363.957 117.522 362.811 111.032 367.894 C 107.434 370.717 105.323 375.03 105.301 379.604 C 105.28 384.178 107.349 388.511 110.92 391.369 C 112.265 392.447 112.972 394.15 112.762 395.883 C 112.551 397.615 111.426 399.061 109.831 399.746 C 108.676 400.273 107.583 400.879 106.572 401.67 C 100.082 406.753 98.936 416.178 104.019 422.668 C 107.093 426.593 111.897 428.725 116.866 428.345 C 118.532 428.231 120.098 428.949 121.102 430.231 C 122.107 431.514 122.428 433.206 121.918 434.796 C 120.389 439.568 121.306 444.743 124.35 448.63 C 129.433 455.12 138.858 456.266 145.348 451.183 C 146.358 450.392 147.278 449.484 147.997 448.482 C 149.045 447.097 150.748 446.39 152.45 446.562 C 154.183 446.772 155.637 447.828 156.391 449.432 C 158.31 453.584 162.021 456.631 166.466 457.706 C 170.912 458.782 175.605 457.766 179.209 454.95 C 185.699 449.867 186.845 440.442 181.763 433.952 C 180.089 431.814 180.468 428.696 182.605 427.022 L 177.401 420.376 L 161.894 432.52 C 159.756 434.194 156.638 433.815 154.964 431.677 Z " fill="rgb(254,215,16)"/><path d=" M 161.966 368.321 C 166.02 361.008 173.151 349.217 181.735 339.923 L 153.773 330.158 L 140.365 340.658 L 162.005 368.291 L 161.966 368.321 Z  M 223.636 392.946 C 212.547 399.122 199.243 403.271 191.063 405.476 L 213.403 434.002 L 226.811 423.502 L 223.93 392.841 C 223.86 392.833 223.744 392.924 223.636 392.946 L 223.636 392.946 Z  M 270.528 313.274 C 240.991 310.385 211.516 322.307 189.139 346.415 C 179.626 356.686 171.669 370.943 168.601 376.794 L 173.806 383.44 L 207.657 356.93 C 209.794 355.256 212.913 355.635 214.587 357.773 C 216.261 359.91 215.881 363.029 213.744 364.703 L 179.893 391.213 L 184.397 396.965 C 190.852 395.358 206.593 391.119 218.814 384.307 C 247.652 368.37 266.253 342.642 270.528 313.274 L 270.528 313.274 Z  M 224.123 349.615 C 218.371 342.269 219.669 331.597 227.014 325.844 C 234.36 320.092 245.032 321.39 250.784 328.735 C 256.537 336.081 255.239 346.753 247.893 352.505 C 240.548 358.258 229.876 356.96 224.123 349.615 Z " fill="rgb(0,170,209)"/><path d=" M 181.793 433.991 C 186.876 440.481 185.73 449.906 179.239 454.989 C 175.635 457.805 170.942 458.82 166.497 457.745 C 162.051 456.67 158.34 453.623 156.422 449.471 C 155.698 447.906 154.213 446.811 152.481 446.601 C 150.748 446.39 149.075 447.136 148.028 448.52 C 147.239 449.515 146.389 450.431 145.378 451.222 C 138.888 456.305 129.463 455.159 124.38 448.668 C 121.306 444.743 120.389 439.568 121.949 434.835 C 122.459 433.244 122.137 431.553 121.133 430.27 C 120.128 428.988 118.524 428.3 116.896 428.384 C 111.933 428.763 107.11 426.632 104.049 422.707 C 98.966 416.217 100.113 406.792 106.603 401.709 C 107.613 400.918 108.715 400.243 109.861 399.784 C 111.456 399.099 112.551 397.615 112.792 395.921 C 113.003 394.189 112.365 392.494 110.95 391.408 C 110.017 390.696 109.209 389.824 108.509 388.93 C 103.426 382.44 104.572 373.015 111.062 367.932 C 117.553 362.85 126.978 363.996 132.061 370.486 C 133.734 372.624 136.853 373.003 138.991 371.329 C 141.128 369.655 141.507 366.537 139.833 364.399 C 131.364 353.628 115.78 351.733 104.975 360.16 C 94.443 368.408 92.398 383.49 100.166 394.21 C 89.708 402.713 87.906 418.106 96.276 428.794 C 100.081 433.652 105.46 436.838 111.378 437.91 C 110.999 443.912 112.803 449.898 116.608 454.756 C 124.947 465.405 140.354 467.384 151.116 459.269 C 159.661 469.38 174.833 470.979 185.326 462.762 C 196.097 454.292 197.993 438.708 189.566 427.904 C 187.892 425.766 184.773 425.387 182.636 427.061 C 180.498 428.735 180.119 431.853 181.793 433.991 L 181.793 433.991 Z  M 236.901 425.256 L 233.327 386.987 C 244.904 379.112 254.95 369.363 262.681 358.418 C 273.088 343.685 279.225 327.342 280.933 309.828 L 280.975 309.481 C 281.238 306.857 279.386 304.491 276.775 304.118 L 276.428 304.076 C 259.054 301.505 241.717 303.546 224.88 310.148 C 212.215 315.113 200.148 322.682 189.594 332.264 L 154.51 320.05 C 152.928 319.471 151.167 319.784 149.845 320.819 L 130.413 336.037 C 128.276 337.711 127.896 340.83 129.57 342.967 L 152.154 371.805 L 128.719 390.158 C 126.581 391.832 126.202 394.95 127.876 397.088 C 129.55 399.225 132.668 399.605 134.806 397.931 L 158.241 379.578 L 166.033 389.527 L 134.902 413.906 C 132.765 415.58 132.386 418.699 134.059 420.836 C 135.733 422.974 138.852 423.353 140.99 421.679 L 172.12 397.3 L 178.572 405.539 C 178.694 405.695 178.785 405.811 178.946 405.936 C 179.068 406.092 179.12 406.239 179.242 406.394 L 155.807 424.747 C 153.669 426.421 153.29 429.54 154.964 431.677 C 156.638 433.815 159.756 434.194 161.894 432.52 L 185.329 414.167 L 208.674 443.976 C 210.348 446.114 213.466 446.493 215.604 444.819 L 235.036 429.601 C 236.357 428.566 237.053 426.893 236.901 425.256 L 236.901 425.256 Z  M 153.773 330.158 L 181.735 339.923 C 173.189 349.187 166.059 360.978 161.966 368.321 L 140.326 340.689 L 153.773 330.158 Z  M 179.893 391.213 L 213.744 364.703 C 215.881 363.029 216.261 359.91 214.587 357.773 C 212.913 355.635 209.794 355.256 207.657 356.93 L 173.806 383.44 L 168.601 376.794 C 171.707 370.913 179.596 356.647 189.139 346.415 C 211.516 322.307 240.952 310.415 270.528 313.274 C 266.253 342.642 247.613 368.4 218.844 384.346 C 206.593 391.119 190.843 395.428 184.428 397.003 L 179.893 391.213 Z  M 213.403 434.002 L 191.063 405.476 C 199.243 403.271 212.547 399.122 223.636 392.946 C 223.713 392.885 223.86 392.833 223.938 392.772 L 226.82 423.433 L 213.403 434.002 L 213.403 434.002 Z  M 250.746 328.766 C 244.993 321.42 234.321 320.122 226.975 325.875 C 219.63 331.627 218.332 342.3 224.085 349.645 C 229.837 356.99 240.509 358.288 247.855 352.536 C 255.2 346.783 256.498 336.111 250.746 328.766 Z  M 231.896 343.527 C 230.341 341.542 229.964 338.877 230.906 336.538 C 231.848 334.199 233.966 332.54 236.463 332.186 C 238.96 331.832 241.457 332.837 243.012 334.823 C 245.415 337.892 244.876 342.329 241.806 344.733 C 238.737 347.136 234.3 346.597 231.896 343.527 L 231.896 343.527 Z " fill="rgb(45,48,51)"/></g><g id="null"><rect x="570.617" y="384.828" width="29.478" height="22.247" transform="matrix(1,0,0,1,0,0)" fill="rgb(254,215,16)"/><path d=" M 585.051 360.048 C 598.626 360.048 609.694 348.741 609.694 334.791 C 609.694 334.241 609.658 333.727 609.658 333.176 L 609.551 331.928 L 609.443 331.157 C 609.408 331.12 609.336 331.12 609.3 331.084 C 609.229 331.047 609.121 331.01 609.049 330.973 C 608.978 330.937 608.906 330.9 608.87 330.863 L 608.799 330.79 L 608.655 330.716 C 607.832 330.166 607.008 329.689 606.148 329.211 C 606.005 329.138 605.826 329.028 605.683 328.954 C 605.36 328.771 605.002 328.587 604.68 328.404 L 604.465 328.294 C 604.107 328.11 603.784 327.963 603.426 327.78 L 602.996 327.559 C 602.674 327.412 602.352 327.266 601.993 327.119 C 601.85 327.045 601.671 326.972 601.528 326.935 C 601.277 326.825 600.99 326.715 600.74 326.605 C 600.453 326.495 600.167 326.385 599.844 326.274 C 599.558 326.164 599.271 326.054 598.985 325.981 C 598.877 325.944 598.806 325.907 598.698 325.871 C 598.304 325.724 597.91 325.614 597.516 325.504 C 597.409 325.467 597.337 325.43 597.23 325.43 L 596.442 325.21 L 595.689 324.99 C 595.331 324.879 594.973 324.806 594.579 324.733 L 594.113 324.622 C 593.827 324.549 593.505 324.512 593.218 324.439 C 592.967 324.402 592.752 324.366 592.502 324.292 C 592.143 324.219 591.785 324.182 591.427 324.109 C 591.355 324.109 591.284 324.109 591.248 324.072 C 590.854 324.035 590.496 323.962 590.102 323.925 C 589.959 323.925 589.815 323.888 589.636 323.888 C 589.493 323.888 589.35 323.852 589.206 323.852 C 588.848 323.815 588.526 323.778 588.168 323.778 C 587.809 323.741 587.415 323.741 587.057 323.705 L 586.663 323.705 C 586.305 323.705 585.947 323.705 585.625 323.668 L 585.123 323.668 C 584.729 323.668 584.335 323.668 583.905 323.705 L 583.547 323.705 C 583.189 323.705 582.831 323.741 582.473 323.778 C 582.114 323.815 581.792 323.815 581.434 323.852 C 581.219 323.888 581.004 323.888 580.789 323.925 C 580.431 323.962 580.073 323.998 579.715 324.072 C 579.607 324.072 579.5 324.109 579.356 324.109 C 579.285 324.109 579.177 324.145 579.106 324.145 L 577.816 324.366 C 577.673 324.402 577.566 324.402 577.422 324.439 L 576.348 324.659 L 575.81 324.769 C 575.452 324.843 575.094 324.916 574.772 325.026 C 574.7 325.026 574.664 325.063 574.593 325.063 C 574.27 325.136 573.912 325.247 573.59 325.357 C 573.375 325.43 573.16 325.467 572.945 325.54 L 571.871 325.871 L 571.548 325.981 C 571.226 326.091 570.939 326.201 570.617 326.311 C 570.402 326.385 570.187 326.458 569.972 326.568 C 569.721 326.678 569.435 326.788 569.184 326.862 C 568.969 326.935 568.79 327.045 568.575 327.119 C 568.217 327.266 567.859 327.412 567.501 327.596 C 567.429 327.633 567.357 327.669 567.286 327.669 C 566.928 327.853 566.569 328 566.211 328.183 C 566.032 328.257 565.889 328.33 565.71 328.44 C 565.387 328.624 565.029 328.807 564.707 328.991 C 564.635 329.028 564.564 329.064 564.528 329.101 C 564.134 329.321 563.776 329.542 563.382 329.762 C 563.274 329.835 563.131 329.909 563.024 329.982 C 562.63 330.239 562.236 330.459 561.842 330.716 L 560.588 332.075 C 560.48 332.992 560.445 333.91 560.445 334.828 C 560.445 335.269 560.445 335.709 560.48 336.113 C 561.125 349.402 571.906 360.048 585.051 360.048 L 585.051 360.048 Z " fill="rgb(0,170,209)"/><path d=" M 655.684 396.649 L 634.731 375.21 L 631.507 371.942 C 629.824 370.217 628.069 368.675 626.242 367.207 L 626.242 361.884 C 626.242 353.844 621.586 346.869 614.924 343.675 C 616.304 338.769 616.513 333.594 615.532 328.587 C 612.703 314.013 600.095 303 585.051 303 C 570.008 303 557.436 314.013 554.571 328.587 C 553.59 333.594 553.799 338.769 555.179 343.675 C 548.255 346.977 543.827 354.093 543.825 361.92 L 543.825 367.243 C 541.998 368.675 540.208 370.29 538.524 371.979 L 535.587 374.989 L 514.347 396.685 C 509.046 401.641 508.509 410.158 513.201 415.701 C 515.493 418.455 518.753 420.07 522.334 420.327 C 525.988 420.584 529.641 419.299 532.363 416.803 L 535.551 413.866 L 543.754 406.34 L 543.754 418.344 C 543.754 425.907 547.837 432.515 553.89 435.929 L 553.89 465.517 C 548.751 466.996 545.196 471.794 545.186 477.265 C 545.186 483.139 549.843 487.948 555.609 487.948 L 572.05 487.948 C 578.783 487.948 584.263 482.331 584.263 475.429 L 584.263 443.234 C 584.263 442.849 584.568 442.537 584.944 442.537 C 585.32 442.537 585.625 442.849 585.625 443.234 L 585.625 475.429 C 585.625 482.331 591.105 487.948 597.838 487.948 L 614.279 487.948 C 620.01 487.948 624.702 483.175 624.702 477.265 C 624.702 471.685 621.013 466.949 616.034 465.517 L 616.034 435.929 C 622.263 432.379 626.129 425.65 626.135 418.344 L 626.135 406.303 L 634.623 414.086 L 637.56 416.766 C 640.283 419.262 643.936 420.547 647.589 420.29 C 651.171 420.07 654.431 418.418 656.723 415.665 C 661.487 410.085 660.985 401.568 655.684 396.649 Z  M 619.795 361.884 L 619.795 362.875 C 615.712 360.525 611.342 358.763 606.793 357.589 C 609.067 355.307 610.988 352.682 612.488 349.806 C 616.786 352.009 619.795 356.597 619.795 361.884 L 619.795 361.884 Z  M 568.683 315.959 C 568.719 315.922 568.754 315.885 568.826 315.849 L 568.898 315.775 C 573.232 311.921 578.891 309.534 585.051 309.534 C 591.176 309.534 596.764 311.847 601.098 315.628 C 602.638 316.987 604.035 318.565 605.217 320.254 C 605.79 321.098 606.327 321.979 606.829 322.934 C 593.072 316.053 576.975 316.121 563.274 323.117 C 564.6 320.437 566.462 318.015 568.683 315.959 L 568.683 315.959 Z  M 560.588 332.038 L 561.842 330.68 C 562.164 330.459 562.522 330.239 562.844 330.019 C 562.88 329.982 562.952 329.946 563.024 329.909 C 563.131 329.835 563.274 329.762 563.382 329.689 C 563.489 329.652 563.561 329.578 563.668 329.542 C 563.955 329.358 564.241 329.211 564.528 329.064 C 564.6 329.028 564.671 328.991 564.707 328.954 C 564.85 328.881 564.958 328.807 565.101 328.734 C 565.244 328.661 565.352 328.587 565.495 328.514 L 565.531 328.514 L 565.746 328.404 C 565.925 328.33 566.068 328.22 566.247 328.147 C 566.355 328.11 566.462 328.037 566.569 328 C 566.82 327.89 567.071 327.743 567.322 327.633 L 567.357 327.633 C 567.429 327.596 567.501 327.559 567.572 327.559 C 567.68 327.486 567.823 327.449 567.931 327.376 C 568.074 327.302 568.253 327.229 568.432 327.156 C 568.504 327.119 568.575 327.082 568.647 327.082 C 568.862 327.009 569.041 326.899 569.256 326.825 C 569.507 326.715 569.757 326.605 570.044 326.531 C 570.259 326.458 570.474 326.385 570.689 326.274 C 570.796 326.238 570.868 326.201 570.939 326.164 C 571.118 326.091 571.262 326.054 571.441 325.981 C 571.512 325.944 571.548 325.944 571.62 325.907 L 571.942 325.797 C 571.978 325.797 572.014 325.761 572.05 325.761 C 572.121 325.724 572.193 325.724 572.265 325.687 C 572.479 325.614 572.659 325.577 572.873 325.504 C 572.945 325.504 572.981 325.467 573.053 325.467 C 573.267 325.393 573.482 325.32 573.697 325.283 L 574.02 325.173 C 574.235 325.1 574.485 325.063 574.7 324.99 C 574.772 324.99 574.808 324.953 574.879 324.953 C 575.094 324.916 575.309 324.843 575.488 324.806 L 575.918 324.696 L 576.455 324.586 L 576.491 324.586 C 576.706 324.549 576.921 324.512 577.1 324.476 C 577.243 324.439 577.351 324.439 577.494 324.402 C 577.637 324.366 577.745 324.366 577.888 324.329 C 577.924 324.329 577.995 324.292 578.031 324.292 L 578.139 324.292 C 578.461 324.219 578.748 324.182 579.07 324.145 L 579.177 324.145 C 579.249 324.145 579.356 324.109 579.428 324.109 L 579.5 324.109 C 579.607 324.109 579.679 324.072 579.786 324.072 C 580.144 324.035 580.503 323.962 580.861 323.925 C 581.076 323.888 581.291 323.888 581.506 323.852 C 581.864 323.815 582.186 323.778 582.544 323.778 L 582.795 323.778 C 583.01 323.778 583.225 323.741 583.44 323.741 L 587.201 323.741 C 587.38 323.741 587.595 323.741 587.809 323.778 L 587.917 323.778 C 588.024 323.778 588.132 323.778 588.239 323.815 C 588.597 323.852 588.92 323.888 589.278 323.888 C 589.385 323.888 589.529 323.925 589.636 323.925 L 589.708 323.925 C 589.851 323.925 589.994 323.962 590.173 323.962 C 590.281 323.962 590.388 323.998 590.496 323.998 C 590.675 324.035 590.818 324.035 590.997 324.072 C 591.105 324.072 591.212 324.109 591.32 324.109 C 591.391 324.109 591.463 324.109 591.499 324.145 L 591.535 324.145 C 591.678 324.182 591.821 324.182 592 324.219 C 592.143 324.255 592.323 324.255 592.466 324.292 C 592.502 324.292 592.537 324.292 592.573 324.329 C 592.824 324.366 593.039 324.402 593.29 324.476 C 593.361 324.476 593.433 324.512 593.505 324.512 C 593.719 324.549 593.934 324.586 594.113 324.622 L 594.185 324.622 L 594.651 324.733 C 594.686 324.733 594.722 324.733 594.758 324.769 L 595.618 324.99 C 595.654 324.99 595.725 325.026 595.761 325.026 L 596.513 325.247 C 596.764 325.32 596.979 325.357 597.23 325.43 C 597.265 325.43 597.301 325.43 597.301 325.467 C 597.409 325.504 597.48 325.504 597.588 325.54 C 597.659 325.577 597.767 325.577 597.838 325.614 L 598.232 325.724 C 598.412 325.761 598.591 325.834 598.77 325.907 C 598.877 325.944 598.949 325.981 599.056 326.017 C 599.235 326.091 599.45 326.164 599.629 326.201 C 599.737 326.238 599.808 326.274 599.916 326.311 C 600.202 326.421 600.489 326.531 600.811 326.642 C 600.919 326.678 600.99 326.715 601.098 326.752 C 601.277 326.825 601.42 326.899 601.599 326.972 C 601.743 327.045 601.922 327.119 602.065 327.156 C 602.387 327.302 602.746 327.449 603.068 327.596 L 603.498 327.816 C 603.605 327.853 603.713 327.926 603.856 327.963 C 604.035 328.073 604.25 328.147 604.429 328.257 C 604.465 328.294 604.501 328.294 604.536 328.33 L 604.751 328.44 C 604.823 328.477 604.93 328.514 605.002 328.551 C 605.145 328.624 605.324 328.734 605.468 328.807 C 605.575 328.844 605.647 328.918 605.754 328.954 C 605.897 329.028 606.077 329.138 606.22 329.211 C 606.291 329.248 606.363 329.285 606.399 329.321 C 606.399 329.321 606.435 329.321 606.435 329.358 C 606.721 329.542 607.044 329.725 607.33 329.872 C 607.796 330.129 608.226 330.423 608.691 330.716 L 608.835 330.79 L 608.906 330.863 C 608.978 330.9 609.049 330.937 609.085 330.973 C 609.157 331.01 609.264 331.047 609.336 331.084 C 609.372 331.12 609.443 331.12 609.479 331.157 L 609.587 331.928 L 609.694 333.176 C 609.73 333.69 609.766 334.241 609.766 334.791 C 609.766 348.705 598.734 360.048 585.123 360.048 C 571.978 360.048 561.197 349.439 560.516 336.113 C 560.48 335.672 560.48 335.269 560.48 334.828 C 560.445 333.874 560.48 332.956 560.588 332.038 L 560.588 332.038 Z  M 550.308 361.884 C 550.308 356.561 553.317 351.972 557.651 349.769 C 559.155 352.669 561.089 355.276 563.346 357.552 C 558.797 358.727 554.427 360.489 550.308 362.838 L 550.308 361.884 Z  M 535.623 404.945 L 528.137 411.81 C 526.888 412.925 525.313 413.584 523.66 413.682 L 522.836 413.682 C 522.406 413.646 521.976 413.572 521.546 413.462 C 521.045 413.315 520.544 413.132 520.114 412.911 C 519.362 412.507 518.717 411.994 518.144 411.333 C 515.708 408.433 515.995 404.027 518.788 401.458 L 518.896 401.347 L 520.758 399.439 L 530.823 389.16 L 535.659 395.437 L 539.957 401.017 L 535.623 404.945 Z  M 550.308 418.344 L 550.308 400.356 L 553.997 396.979 L 553.997 427.706 C 551.624 425.198 550.3 421.838 550.308 418.344 Z  M 555.717 481.34 C 555.036 481.34 554.391 481.156 553.818 480.862 C 553.496 480.679 553.174 480.422 552.887 480.165 C 552.171 479.431 551.741 478.403 551.741 477.302 C 551.741 475.576 552.529 473.998 553.747 472.97 C 554.678 472.162 555.896 471.685 557.221 471.685 C 559.012 471.685 560.445 470.216 560.445 468.381 L 560.445 457.551 L 577.96 457.551 L 577.96 475.393 C 577.96 477.412 576.992 479.174 575.488 480.238 C 574.557 480.936 573.411 481.303 572.157 481.303 L 555.717 481.34 L 555.717 481.34 Z  M 597.946 481.34 C 594.758 481.34 592.179 478.697 592.179 475.429 L 592.179 457.588 L 609.694 457.588 L 609.694 468.418 C 609.694 469.335 610.052 470.143 610.625 470.767 C 611.199 471.354 612.022 471.722 612.918 471.722 C 615.926 471.722 618.362 474.218 618.362 477.302 C 618.358 479.536 616.602 481.352 614.422 481.376 L 597.946 481.376 L 597.946 481.34 L 597.946 481.34 Z  M 619.795 418.344 C 619.795 421.942 618.398 425.246 616.141 427.669 L 616.141 397.052 L 619.795 400.393 L 619.795 418.344 Z  M 624.165 395.547 L 615.067 387.177 C 614.136 386.296 612.774 386.076 611.593 386.627 C 610.445 387.17 609.706 388.342 609.694 389.637 L 609.694 450.943 L 592.179 450.943 L 592.179 443.197 C 592.179 439.159 588.991 435.892 585.051 435.892 C 581.112 435.892 577.924 439.159 577.924 443.197 L 577.924 450.943 L 560.445 450.943 L 560.445 389.6 C 560.445 388.315 559.692 387.104 558.546 386.59 C 557.4 386.039 556.039 386.296 555.072 387.141 L 544.756 396.612 L 535.659 384.754 L 535.444 384.461 L 535.659 384.24 L 543.145 376.605 C 550.631 368.969 560.158 364.196 570.474 362.875 C 574.971 365.335 579.99 366.621 585.087 366.619 C 590.353 366.619 595.331 365.261 599.701 362.875 C 609.981 364.196 619.508 368.969 626.958 376.568 L 634.48 384.24 L 624.165 395.547 L 624.165 395.547 Z  M 651.923 411.369 C 650.833 412.672 649.292 413.488 647.625 413.646 C 647.482 413.646 647.375 413.682 647.231 413.682 C 645.297 413.792 643.363 413.132 641.93 411.81 L 634.695 405.202 L 629.287 400.246 L 628.964 399.952 L 633.835 394.629 L 634.695 393.675 L 635.519 392.757 L 638.993 388.939 L 650.992 401.201 L 651.135 401.347 L 651.171 401.384 L 651.279 401.494 C 654.072 404.064 654.359 408.469 651.923 411.369 L 651.923 411.369 Z  M 603.319 378.22 L 567.393 378.22 C 565.602 378.22 564.17 379.688 564.17 381.524 L 564.17 410.378 C 564.17 412.214 565.602 413.682 567.393 413.682 L 603.319 413.682 C 605.109 413.682 606.542 412.214 606.542 410.378 L 606.542 381.524 C 606.542 379.688 605.109 378.22 603.319 378.22 L 603.319 378.22 Z  M 600.095 384.828 L 600.095 407.074 L 570.617 407.074 L 570.617 384.828 L 600.095 384.828 Z " fill="rgb(45,48,51)"/></g><g id="null"><path d=" M 459.923 133.702 C 471.772 122.495 477.9 107.936 478.305 93.232 C 469.848 103.29 460.075 113.635 449.39 123.74 C 438.705 133.846 427.766 143.089 417.132 151.087 C 432.679 150.704 448.073 144.909 459.923 133.702 Z  M 415.41 32.169 C 399.307 32.169 383.204 37.964 370.949 49.554 C 346.439 72.734 346.439 110.522 370.949 133.702 C 379.031 141.377 389.193 146.796 400.32 149.363 C 413.486 140.264 427.513 128.817 441.135 115.934 C 454.757 103.051 466.86 89.784 476.482 77.332 C 473.767 66.809 468.038 57.197 459.923 49.554 C 448.112 38.402 432.099 32.148 415.41 32.169 Z " fill="rgb(0,170,209)"/><path d=" M 457.289 33.27 C 428.273 14.64 388.419 17.465 362.695 41.795 C 337.02 66.077 334.033 103.817 353.731 131.26 C 343.249 147.304 333.931 167.323 344.059 176.902 C 346.996 179.68 350.997 181.069 356.01 181.069 C 364.062 181.069 374.747 177.429 388.014 170.197 C 392.774 167.563 397.788 164.545 402.902 161.193 C 407.004 161.863 411.207 162.199 415.461 162.199 C 435.362 162.199 454.099 154.871 468.177 141.557 C 485.901 124.794 492.838 101.614 488.939 79.87 C 492.535 75.033 495.725 70.292 498.51 65.742 C 510.917 45.483 513.297 31.498 505.549 24.17 C 495.472 14.592 474.608 23.165 457.289 33.27 L 457.289 33.27 Z  M 441.135 115.934 C 427.513 128.817 413.486 140.264 400.32 149.363 C 389.193 146.796 379.031 141.377 370.949 133.702 C 346.439 110.522 346.439 72.734 370.949 49.554 C 383.204 37.964 399.307 32.169 415.41 32.169 C 431.514 32.169 447.617 37.964 459.872 49.554 C 467.987 57.197 473.717 66.809 476.431 77.332 C 466.86 89.784 454.757 103.051 441.135 115.934 Z  M 478.254 93.232 C 477.849 107.936 471.722 122.495 459.872 133.702 C 448.022 144.909 432.628 150.704 417.082 151.087 C 427.716 143.089 438.654 133.846 449.339 123.74 C 460.024 113.635 469.797 103.29 478.254 93.232 Z  M 382.14 160.666 C 362.695 171.298 354.086 170.819 352.263 169.095 C 349.933 166.892 350.845 157.553 361.479 140.359 L 362.695 141.509 C 370.037 148.453 378.646 153.769 388.065 157.266 C 386.039 158.463 384.064 159.612 382.14 160.666 Z  M 488.382 60.186 C 487.268 62.006 486.053 63.922 484.787 65.79 C 481.141 57.025 475.621 48.835 468.126 41.747 L 466.911 40.598 C 487.167 29.391 495.674 30.349 497.295 31.881 C 499.118 33.653 499.624 41.795 488.382 60.186 Z " fill="rgb(45,48,51)"/><path d=" M 307.295 66.7 C 309.581 66.5 311.793 65.83 313.777 64.736 C 314.232 64.497 314.638 64.209 315.093 63.922 C 315.296 63.778 315.498 63.634 315.701 63.443 C 316.106 63.108 316.511 62.772 316.866 62.437 C 319.818 59.671 321.479 55.903 321.479 51.972 C 321.479 48.042 319.818 44.274 316.866 41.508 C 316.461 41.125 316.106 40.789 315.701 40.502 C 315.498 40.358 315.296 40.215 315.093 40.023 C 314.536 39.64 313.979 39.305 313.372 38.969 C 313.169 38.874 312.966 38.778 312.814 38.682 C 310.637 37.676 308.257 37.15 305.877 37.15 C 302.636 37.15 299.395 38.107 296.66 40.023 C 296.458 40.167 296.255 40.31 296.053 40.502 C 295.648 40.837 295.243 41.173 294.888 41.508 C 291.936 44.274 290.275 48.042 290.275 51.972 C 290.275 55.903 291.936 59.671 294.888 62.437 C 295.293 62.82 295.648 63.156 296.053 63.443 C 296.255 63.587 296.458 63.73 296.66 63.922 C 298.929 65.495 301.607 66.455 304.408 66.7 C 305.32 66.748 306.282 66.748 307.295 66.7 L 307.295 66.7 Z " fill="rgb(254,215,16)"/><path d=" M 324.006 69.19 C 328.867 64.592 331.551 58.462 331.551 51.949 C 331.551 45.435 328.867 39.305 324.006 34.707 C 319.144 30.109 312.663 27.571 305.776 27.571 C 298.889 27.571 292.407 30.109 287.545 34.707 C 282.684 39.305 280 45.435 280 51.949 C 280 58.462 282.684 64.544 287.545 69.19 C 292.407 73.788 298.889 76.326 305.776 76.326 C 312.663 76.326 319.144 73.788 324.006 69.19 Z  M 297.876 64.688 C 297.42 64.449 297.015 64.161 296.559 63.874 C 296.357 63.73 296.154 63.587 295.951 63.395 C 295.546 63.06 295.141 62.725 294.787 62.389 C 291.835 59.623 290.174 55.855 290.174 51.925 C 290.174 47.994 291.835 44.226 294.787 41.46 C 295.192 41.077 295.546 40.742 295.951 40.454 C 296.154 40.31 296.357 40.167 296.559 39.975 C 299.294 38.06 302.535 37.102 305.776 37.102 C 308.156 37.102 310.536 37.628 312.713 38.634 C 312.916 38.73 313.118 38.826 313.27 38.922 C 313.878 39.209 314.435 39.592 314.992 39.975 C 315.195 40.119 315.397 40.263 315.6 40.454 C 316.005 40.789 316.41 41.125 316.764 41.46 C 319.717 44.226 321.377 47.994 321.377 51.925 C 321.377 55.855 319.717 59.623 316.764 62.389 C 316.359 62.772 316.005 63.108 315.6 63.395 C 315.397 63.539 315.195 63.682 314.992 63.874 C 314.587 64.161 314.131 64.449 313.675 64.688 C 313.017 65.071 312.308 65.359 311.599 65.646 C 310.181 66.173 308.713 66.508 307.193 66.652 C 306.687 66.7 306.181 66.7 305.674 66.7 C 305.168 66.7 304.662 66.7 304.155 66.652 C 302.079 66.46 299.851 65.838 297.876 64.688 L 297.876 64.688 Z " fill="rgb(45,48,51)"/></g><path d=" M 484.749 240.09 L 484.749 240.09 L 484.749 240.09 Q 486.727 240.706 488.353 241.848 L 488.353 241.848 L 488.353 241.848 Q 489.979 242.991 491.122 244.771 L 491.122 244.771 L 491.122 244.771 Q 492.264 246.55 492.879 248.967 L 492.879 248.967 L 492.879 248.967 Q 493.495 251.384 493.495 254.504 L 493.495 254.504 L 493.495 257.668 L 493.495 257.668 Q 493.495 272.961 478.202 272.961 L 478.202 272.961 L 443.705 272.961 L 443.705 209.944 L 476.4 209.944 L 476.4 209.944 Q 491.693 209.944 491.693 225.281 L 491.693 225.281 L 491.693 226.423 L 491.693 226.423 Q 491.693 231.741 490.001 235.103 L 490.001 235.103 L 490.001 235.103 Q 488.309 238.464 484.749 240.09 Z  M 477.938 245.496 L 452.538 245.496 L 452.538 264.128 L 477.938 264.128 L 477.938 264.128 Q 481.498 264.128 483.08 262.458 L 483.08 262.458 L 483.08 262.458 Q 484.662 260.789 484.662 257.229 L 484.662 257.229 L 484.662 252.351 L 484.662 252.351 Q 484.662 248.748 483.08 247.122 L 483.08 247.122 L 483.08 247.122 Q 481.498 245.496 477.938 245.496 L 477.938 245.496 Z  M 476.136 218.777 L 452.538 218.777 L 452.538 236.707 L 476.751 236.707 L 476.751 236.707 Q 480.003 236.575 481.432 234.927 L 481.432 234.927 L 481.432 234.927 Q 482.86 233.279 482.86 229.851 L 482.86 229.851 L 482.86 225.72 L 482.86 225.72 Q 482.86 222.117 481.278 220.447 L 481.278 220.447 L 481.278 220.447 Q 479.696 218.777 476.136 218.777 L 476.136 218.777 Z  M 516.986 272.961 L 516.986 209.944 L 562.909 209.944 L 562.909 218.953 L 525.995 218.953 L 525.995 236.97 L 557.503 236.97 L 557.503 245.979 L 525.995 245.979 L 525.995 263.953 L 562.909 263.953 L 562.909 272.961 L 516.986 272.961 Z  M 605.296 209.944 L 614.305 209.944 L 638.607 272.961 L 629.598 272.961 L 624.017 258.459 L 595.584 258.459 L 590.003 272.961 L 580.995 272.961 L 605.296 209.944 Z  M 609.823 221.677 L 599.012 249.451 L 620.545 249.451 L 609.823 221.677 Z  M 654.012 218.953 L 654.012 209.944 L 704.417 209.944 L 704.417 218.953 L 683.719 218.953 L 683.719 272.961 L 674.71 272.961 L 674.71 218.953 L 654.012 218.953 Z  M 764.823 245.979 L 734.237 245.979 L 734.237 245.979 Q 732.391 245.979 730.743 245.254 L 730.743 245.254 L 730.743 245.254 Q 729.095 244.529 727.865 243.32 L 727.865 243.32 L 727.865 243.32 Q 726.634 242.112 725.931 240.464 L 725.931 240.464 L 725.931 240.464 Q 725.228 238.816 725.228 236.97 L 725.228 236.97 L 725.228 218.953 L 725.228 218.953 Q 725.228 217.107 725.931 215.459 L 725.931 215.459 L 725.931 215.459 Q 726.634 213.811 727.865 212.603 L 727.865 212.603 L 727.865 212.603 Q 729.095 211.394 730.743 210.669 L 730.743 210.669 L 730.743 210.669 Q 732.391 209.944 734.237 209.944 L 734.237 209.944 L 764.823 209.944 L 764.823 209.944 Q 766.668 209.944 768.316 210.669 L 768.316 210.669 L 768.316 210.669 Q 769.964 211.394 771.195 212.603 L 771.195 212.603 L 771.195 212.603 Q 772.425 213.811 773.128 215.459 L 773.128 215.459 L 773.128 215.459 Q 773.832 217.107 773.832 218.953 L 773.832 218.953 L 773.832 227.083 L 764.823 227.083 L 764.823 218.953 L 734.237 218.953 L 734.237 236.97 L 764.823 236.97 L 764.823 236.97 Q 766.668 236.97 768.316 237.673 L 768.316 237.673 L 768.316 237.673 Q 769.964 238.376 771.195 239.607 L 771.195 239.607 L 771.195 239.607 Q 772.425 240.837 773.128 242.485 L 773.128 242.485 L 773.128 242.485 Q 773.832 244.133 773.832 245.979 L 773.832 245.979 L 773.832 263.953 L 773.832 263.953 Q 773.832 265.798 773.128 267.446 L 773.128 267.446 L 773.128 267.446 Q 772.425 269.094 771.195 270.325 L 771.195 270.325 L 771.195 270.325 Q 769.964 271.555 768.316 272.258 L 768.316 272.258 L 768.316 272.258 Q 766.668 272.961 764.823 272.961 L 764.823 272.961 L 733.358 272.961 L 733.358 272.961 Q 731.512 272.961 729.864 272.258 L 729.864 272.258 L 729.864 272.258 Q 728.216 271.555 726.986 270.325 L 726.986 270.325 L 726.986 270.325 Q 725.755 269.094 725.052 267.446 L 725.052 267.446 L 725.052 267.446 Q 724.349 265.798 724.349 263.953 L 724.349 263.953 L 724.349 255.867 L 733.358 255.867 L 733.358 263.953 L 764.823 263.953 L 764.823 245.979 Z  M 68.617 272.961 L 65.936 272.961 L 42.425 226.775 L 42.425 272.961 L 33.416 272.961 L 33.416 209.944 L 43.26 209.944 L 67.254 257.405 L 91.292 209.944 L 101.092 209.944 L 101.092 272.961 L 92.127 272.961 L 92.127 226.775 L 68.617 272.961 Z  M 181.317 218.953 L 181.317 263.953 L 181.317 263.953 Q 181.317 265.798 180.614 267.446 L 180.614 267.446 L 180.614 267.446 Q 179.911 269.094 178.68 270.325 L 178.68 270.325 L 178.68 270.325 Q 177.45 271.555 175.802 272.258 L 175.802 272.258 L 175.802 272.258 Q 174.154 272.961 172.308 272.961 L 172.308 272.961 L 136.317 272.961 L 136.317 272.961 Q 134.471 272.961 132.823 272.258 L 132.823 272.258 L 132.823 272.258 Q 131.175 271.555 129.945 270.325 L 129.945 270.325 L 129.945 270.325 Q 128.714 269.094 128.011 267.446 L 128.011 267.446 L 128.011 267.446 Q 127.308 265.798 127.308 263.953 L 127.308 263.953 L 127.308 218.953 L 127.308 218.953 Q 127.308 217.107 128.011 215.459 L 128.011 215.459 L 128.011 215.459 Q 128.714 213.811 129.945 212.603 L 129.945 212.603 L 129.945 212.603 Q 131.175 211.394 132.823 210.669 L 132.823 210.669 L 132.823 210.669 Q 134.471 209.944 136.317 209.944 L 136.317 209.944 L 172.308 209.944 L 172.308 209.944 Q 174.154 209.944 175.802 210.669 L 175.802 210.669 L 175.802 210.669 Q 177.45 211.394 178.68 212.603 L 178.68 212.603 L 178.68 212.603 Q 179.911 213.811 180.614 215.459 L 180.614 215.459 L 180.614 215.459 Q 181.317 217.107 181.317 218.953 L 181.317 218.953 Z  M 172.308 218.953 L 136.317 218.953 L 136.317 263.953 L 172.308 263.953 L 172.308 218.953 Z  M 261.498 218.953 L 261.498 263.953 L 261.498 263.953 Q 261.498 265.798 260.794 267.446 L 260.794 267.446 L 260.794 267.446 Q 260.091 269.094 258.861 270.325 L 258.861 270.325 L 258.861 270.325 Q 257.63 271.555 255.982 272.258 L 255.982 272.258 L 255.982 272.258 Q 254.334 272.961 252.489 272.961 L 252.489 272.961 L 216.498 272.961 L 216.498 272.961 Q 214.652 272.961 213.004 272.258 L 213.004 272.258 L 213.004 272.258 Q 211.356 271.555 210.125 270.325 L 210.125 270.325 L 210.125 270.325 Q 208.895 269.094 208.192 267.446 L 208.192 267.446 L 208.192 267.446 Q 207.489 265.798 207.489 263.953 L 207.489 263.953 L 207.489 218.953 L 207.489 218.953 Q 207.489 217.107 208.192 215.459 L 208.192 215.459 L 208.192 215.459 Q 208.895 213.811 210.125 212.603 L 210.125 212.603 L 210.125 212.603 Q 211.356 211.394 213.004 210.669 L 213.004 210.669 L 213.004 210.669 Q 214.652 209.944 216.498 209.944 L 216.498 209.944 L 252.489 209.944 L 252.489 209.944 Q 254.334 209.944 255.982 210.669 L 255.982 210.669 L 255.982 210.669 Q 257.63 211.394 258.861 212.603 L 258.861 212.603 L 258.861 212.603 Q 260.091 213.811 260.794 215.459 L 260.794 215.459 L 260.794 215.459 Q 261.498 217.107 261.498 218.953 L 261.498 218.953 Z  M 252.489 218.953 L 216.498 218.953 L 216.498 263.953 L 252.489 263.953 L 252.489 218.953 Z  M 296.678 224.094 L 296.678 272.961 L 287.669 272.961 L 287.669 209.944 L 296.678 209.944 L 334.559 258.811 L 334.559 209.944 L 343.568 209.944 L 343.568 272.961 L 334.559 272.961 L 296.678 224.094 Z " fill-rule="evenodd" fill="rgb(45,48,51)"/><g style="isolation: isolate;"><path d=" M 484.749 240.09 L 484.749 240.09 L 484.749 240.09 Q 486.727 240.706 488.353 241.848 L 488.353 241.848 L 488.353 241.848 Q 489.979 242.991 491.122 244.771 L 491.122 244.771 L 491.122 244.771 Q 492.264 246.55 492.879 248.967 L 492.879 248.967 L 492.879 248.967 Q 493.495 251.384 493.495 254.504 L 493.495 254.504 L 493.495 257.668 L 493.495 257.668 Q 493.495 272.961 478.202 272.961 L 478.202 272.961 L 443.705 272.961 L 443.705 209.944 L 476.4 209.944 L 476.4 209.944 Q 491.693 209.944 491.693 225.281 L 491.693 225.281 L 491.693 226.423 L 491.693 226.423 Q 491.693 231.741 490.001 235.103 L 490.001 235.103 L 490.001 235.103 Q 488.309 238.464 484.749 240.09 Z  M 477.938 245.496 L 452.538 245.496 L 452.538 264.128 L 477.938 264.128 L 477.938 264.128 Q 481.498 264.128 483.08 262.458 L 483.08 262.458 L 483.08 262.458 Q 484.662 260.789 484.662 257.229 L 484.662 257.229 L 484.662 252.351 L 484.662 252.351 Q 484.662 248.748 483.08 247.122 L 483.08 247.122 L 483.08 247.122 Q 481.498 245.496 477.938 245.496 L 477.938 245.496 Z  M 476.136 218.777 L 452.538 218.777 L 452.538 236.707 L 476.751 236.707 L 476.751 236.707 Q 480.003 236.575 481.432 234.927 L 481.432 234.927 L 481.432 234.927 Q 482.86 233.279 482.86 229.851 L 482.86 229.851 L 482.86 225.72 L 482.86 225.72 Q 482.86 222.117 481.278 220.447 L 481.278 220.447 L 481.278 220.447 Q 479.696 218.777 476.136 218.777 L 476.136 218.777 Z  M 516.986 272.961 L 516.986 209.944 L 562.909 209.944 L 562.909 218.953 L 525.995 218.953 L 525.995 236.97 L 557.503 236.97 L 557.503 245.979 L 525.995 245.979 L 525.995 263.953 L 562.909 263.953 L 562.909 272.961 L 516.986 272.961 Z  M 605.296 209.944 L 614.305 209.944 L 638.607 272.961 L 629.598 272.961 L 624.017 258.459 L 595.584 258.459 L 590.003 272.961 L 580.995 272.961 L 605.296 209.944 Z  M 609.823 221.677 L 599.012 249.451 L 620.545 249.451 L 609.823 221.677 Z  M 654.012 218.953 L 654.012 209.944 L 704.417 209.944 L 704.417 218.953 L 683.719 218.953 L 683.719 272.961 L 674.71 272.961 L 674.71 218.953 L 654.012 218.953 Z  M 764.823 245.979 L 734.237 245.979 L 734.237 245.979 Q 732.391 245.979 730.743 245.254 L 730.743 245.254 L 730.743 245.254 Q 729.095 244.529 727.865 243.32 L 727.865 243.32 L 727.865 243.32 Q 726.634 242.112 725.931 240.464 L 725.931 240.464 L 725.931 240.464 Q 725.228 238.816 725.228 236.97 L 725.228 236.97 L 725.228 218.953 L 725.228 218.953 Q 725.228 217.107 725.931 215.459 L 725.931 215.459 L 725.931 215.459 Q 726.634 213.811 727.865 212.603 L 727.865 212.603 L 727.865 212.603 Q 729.095 211.394 730.743 210.669 L 730.743 210.669 L 730.743 210.669 Q 732.391 209.944 734.237 209.944 L 734.237 209.944 L 764.823 209.944 L 764.823 209.944 Q 766.668 209.944 768.316 210.669 L 768.316 210.669 L 768.316 210.669 Q 769.964 211.394 771.195 212.603 L 771.195 212.603 L 771.195 212.603 Q 772.425 213.811 773.128 215.459 L 773.128 215.459 L 773.128 215.459 Q 773.832 217.107 773.832 218.953 L 773.832 218.953 L 773.832 227.083 L 764.823 227.083 L 764.823 218.953 L 734.237 218.953 L 734.237 236.97 L 764.823 236.97 L 764.823 236.97 Q 766.668 236.97 768.316 237.673 L 768.316 237.673 L 768.316 237.673 Q 769.964 238.376 771.195 239.607 L 771.195 239.607 L 771.195 239.607 Q 772.425 240.837 773.128 242.485 L 773.128 242.485 L 773.128 242.485 Q 773.832 244.133 773.832 245.979 L 773.832 245.979 L 773.832 263.953 L 773.832 263.953 Q 773.832 265.798 773.128 267.446 L 773.128 267.446 L 773.128 267.446 Q 772.425 269.094 771.195 270.325 L 771.195 270.325 L 771.195 270.325 Q 769.964 271.555 768.316 272.258 L 768.316 272.258 L 768.316 272.258 Q 766.668 272.961 764.823 272.961 L 764.823 272.961 L 733.358 272.961 L 733.358 272.961 Q 731.512 272.961 729.864 272.258 L 729.864 272.258 L 729.864 272.258 Q 728.216 271.555 726.986 270.325 L 726.986 270.325 L 726.986 270.325 Q 725.755 269.094 725.052 267.446 L 725.052 267.446 L 725.052 267.446 Q 724.349 265.798 724.349 263.953 L 724.349 263.953 L 724.349 255.867 L 733.358 255.867 L 733.358 263.953 L 764.823 263.953 L 764.823 245.979 Z  M 68.617 272.961 L 65.936 272.961 L 42.425 226.775 L 42.425 272.961 L 33.416 272.961 L 33.416 209.944 L 43.26 209.944 L 67.254 257.405 L 91.292 209.944 L 101.092 209.944 L 101.092 272.961 L 92.127 272.961 L 92.127 226.775 L 68.617 272.961 Z  M 181.317 218.953 L 181.317 263.953 L 181.317 263.953 Q 181.317 265.798 180.614 267.446 L 180.614 267.446 L 180.614 267.446 Q 179.911 269.094 178.68 270.325 L 178.68 270.325 L 178.68 270.325 Q 177.45 271.555 175.802 272.258 L 175.802 272.258 L 175.802 272.258 Q 174.154 272.961 172.308 272.961 L 172.308 272.961 L 136.317 272.961 L 136.317 272.961 Q 134.471 272.961 132.823 272.258 L 132.823 272.258 L 132.823 272.258 Q 131.175 271.555 129.945 270.325 L 129.945 270.325 L 129.945 270.325 Q 128.714 269.094 128.011 267.446 L 128.011 267.446 L 128.011 267.446 Q 127.308 265.798 127.308 263.953 L 127.308 263.953 L 127.308 218.953 L 127.308 218.953 Q 127.308 217.107 128.011 215.459 L 128.011 215.459 L 128.011 215.459 Q 128.714 213.811 129.945 212.603 L 129.945 212.603 L 129.945 212.603 Q 131.175 211.394 132.823 210.669 L 132.823 210.669 L 132.823 210.669 Q 134.471 209.944 136.317 209.944 L 136.317 209.944 L 172.308 209.944 L 172.308 209.944 Q 174.154 209.944 175.802 210.669 L 175.802 210.669 L 175.802 210.669 Q 177.45 211.394 178.68 212.603 L 178.68 212.603 L 178.68 212.603 Q 179.911 213.811 180.614 215.459 L 180.614 215.459 L 180.614 215.459 Q 181.317 217.107 181.317 218.953 L 181.317 218.953 Z  M 172.308 218.953 L 136.317 218.953 L 136.317 263.953 L 172.308 263.953 L 172.308 218.953 Z  M 261.498 218.953 L 261.498 263.953 L 261.498 263.953 Q 261.498 265.798 260.794 267.446 L 260.794 267.446 L 260.794 267.446 Q 260.091 269.094 258.861 270.325 L 258.861 270.325 L 258.861 270.325 Q 257.63 271.555 255.982 272.258 L 255.982 272.258 L 255.982 272.258 Q 254.334 272.961 252.489 272.961 L 252.489 272.961 L 216.498 272.961 L 216.498 272.961 Q 214.652 272.961 213.004 272.258 L 213.004 272.258 L 213.004 272.258 Q 211.356 271.555 210.125 270.325 L 210.125 270.325 L 210.125 270.325 Q 208.895 269.094 208.192 267.446 L 208.192 267.446 L 208.192 267.446 Q 207.489 265.798 207.489 263.953 L 207.489 263.953 L 207.489 218.953 L 207.489 218.953 Q 207.489 217.107 208.192 215.459 L 208.192 215.459 L 208.192 215.459 Q 208.895 213.811 210.125 212.603 L 210.125 212.603 L 210.125 212.603 Q 211.356 211.394 213.004 210.669 L 213.004 210.669 L 213.004 210.669 Q 214.652 209.944 216.498 209.944 L 216.498 209.944 L 252.489 209.944 L 252.489 209.944 Q 254.334 209.944 255.982 210.669 L 255.982 210.669 L 255.982 210.669 Q 257.63 211.394 258.861 212.603 L 258.861 212.603 L 258.861 212.603 Q 260.091 213.811 260.794 215.459 L 260.794 215.459 L 260.794 215.459 Q 261.498 217.107 261.498 218.953 L 261.498 218.953 Z  M 252.489 218.953 L 216.498 218.953 L 216.498 263.953 L 252.489 263.953 L 252.489 218.953 Z  M 296.678 224.094 L 296.678 272.961 L 287.669 272.961 L 287.669 209.944 L 296.678 209.944 L 334.559 258.811 L 334.559 209.944 L 343.568 209.944 L 343.568 272.961 L 334.559 272.961 L 296.678 224.094 Z " fill-rule="evenodd" fill="none" vector-effect="non-scaling-stroke" stroke-width="1" stroke="rgb(0,0,0)" stroke-linejoin="miter" stroke-linecap="square" stroke-miterlimit="3"/><path d=" M 484.749 240.09 L 484.749 240.09 L 484.749 240.09 Q 486.727 240.706 488.353 241.848 L 488.353 241.848 L 488.353 241.848 Q 489.979 242.991 491.122 244.771 L 491.122 244.771 L 491.122 244.771 Q 492.264 246.55 492.879 248.967 L 492.879 248.967 L 492.879 248.967 Q 493.495 251.384 493.495 254.504 L 493.495 254.504 L 493.495 257.668 L 493.495 257.668 Q 493.495 272.961 478.202 272.961 L 478.202 272.961 L 443.705 272.961 L 443.705 209.944 L 476.4 209.944 L 476.4 209.944 Q 491.693 209.944 491.693 225.281 L 491.693 225.281 L 491.693 226.423 L 491.693 226.423 Q 491.693 231.741 490.001 235.103 L 490.001 235.103 L 490.001 235.103 Q 488.309 238.464 484.749 240.09 Z  M 477.938 245.496 L 452.538 245.496 L 452.538 264.128 L 477.938 264.128 L 477.938 264.128 Q 481.498 264.128 483.08 262.458 L 483.08 262.458 L 483.08 262.458 Q 484.662 260.789 484.662 257.229 L 484.662 257.229 L 484.662 252.351 L 484.662 252.351 Q 484.662 248.748 483.08 247.122 L 483.08 247.122 L 483.08 247.122 Q 481.498 245.496 477.938 245.496 L 477.938 245.496 Z  M 476.136 218.777 L 452.538 218.777 L 452.538 236.707 L 476.751 236.707 L 476.751 236.707 Q 480.003 236.575 481.432 234.927 L 481.432 234.927 L 481.432 234.927 Q 482.86 233.279 482.86 229.851 L 482.86 229.851 L 482.86 225.72 L 482.86 225.72 Q 482.86 222.117 481.278 220.447 L 481.278 220.447 L 481.278 220.447 Q 479.696 218.777 476.136 218.777 L 476.136 218.777 Z  M 516.986 272.961 L 516.986 209.944 L 562.909 209.944 L 562.909 218.953 L 525.995 218.953 L 525.995 236.97 L 557.503 236.97 L 557.503 245.979 L 525.995 245.979 L 525.995 263.953 L 562.909 263.953 L 562.909 272.961 L 516.986 272.961 Z  M 605.296 209.944 L 614.305 209.944 L 638.607 272.961 L 629.598 272.961 L 624.017 258.459 L 595.584 258.459 L 590.003 272.961 L 580.995 272.961 L 605.296 209.944 Z  M 609.823 221.677 L 599.012 249.451 L 620.545 249.451 L 609.823 221.677 Z  M 654.012 218.953 L 654.012 209.944 L 704.417 209.944 L 704.417 218.953 L 683.719 218.953 L 683.719 272.961 L 674.71 272.961 L 674.71 218.953 L 654.012 218.953 Z  M 764.823 245.979 L 734.237 245.979 L 734.237 245.979 Q 732.391 245.979 730.743 245.254 L 730.743 245.254 L 730.743 245.254 Q 729.095 244.529 727.865 243.32 L 727.865 243.32 L 727.865 243.32 Q 726.634 242.112 725.931 240.464 L 725.931 240.464 L 725.931 240.464 Q 725.228 238.816 725.228 236.97 L 725.228 236.97 L 725.228 218.953 L 725.228 218.953 Q 725.228 217.107 725.931 215.459 L 725.931 215.459 L 725.931 215.459 Q 726.634 213.811 727.865 212.603 L 727.865 212.603 L 727.865 212.603 Q 729.095 211.394 730.743 210.669 L 730.743 210.669 L 730.743 210.669 Q 732.391 209.944 734.237 209.944 L 734.237 209.944 L 764.823 209.944 L 764.823 209.944 Q 766.668 209.944 768.316 210.669 L 768.316 210.669 L 768.316 210.669 Q 769.964 211.394 771.195 212.603 L 771.195 212.603 L 771.195 212.603 Q 772.425 213.811 773.128 215.459 L 773.128 215.459 L 773.128 215.459 Q 773.832 217.107 773.832 218.953 L 773.832 218.953 L 773.832 227.083 L 764.823 227.083 L 764.823 218.953 L 734.237 218.953 L 734.237 236.97 L 764.823 236.97 L 764.823 236.97 Q 766.668 236.97 768.316 237.673 L 768.316 237.673 L 768.316 237.673 Q 769.964 238.376 771.195 239.607 L 771.195 239.607 L 771.195 239.607 Q 772.425 240.837 773.128 242.485 L 773.128 242.485 L 773.128 242.485 Q 773.832 244.133 773.832 245.979 L 773.832 245.979 L 773.832 263.953 L 773.832 263.953 Q 773.832 265.798 773.128 267.446 L 773.128 267.446 L 773.128 267.446 Q 772.425 269.094 771.195 270.325 L 771.195 270.325 L 771.195 270.325 Q 769.964 271.555 768.316 272.258 L 768.316 272.258 L 768.316 272.258 Q 766.668 272.961 764.823 272.961 L 764.823 272.961 L 733.358 272.961 L 733.358 272.961 Q 731.512 272.961 729.864 272.258 L 729.864 272.258 L 729.864 272.258 Q 728.216 271.555 726.986 270.325 L 726.986 270.325 L 726.986 270.325 Q 725.755 269.094 725.052 267.446 L 725.052 267.446 L 725.052 267.446 Q 724.349 265.798 724.349 263.953 L 724.349 263.953 L 724.349 255.867 L 733.358 255.867 L 733.358 263.953 L 764.823 263.953 L 764.823 245.979 Z  M 68.617 272.961 L 65.936 272.961 L 42.425 226.775 L 42.425 272.961 L 33.416 272.961 L 33.416 209.944 L 43.26 209.944 L 67.254 257.405 L 91.292 209.944 L 101.092 209.944 L 101.092 272.961 L 92.127 272.961 L 92.127 226.775 L 68.617 272.961 Z  M 181.317 218.953 L 181.317 263.953 L 181.317 263.953 Q 181.317 265.798 180.614 267.446 L 180.614 267.446 L 180.614 267.446 Q 179.911 269.094 178.68 270.325 L 178.68 270.325 L 178.68 270.325 Q 177.45 271.555 175.802 272.258 L 175.802 272.258 L 175.802 272.258 Q 174.154 272.961 172.308 272.961 L 172.308 272.961 L 136.317 272.961 L 136.317 272.961 Q 134.471 272.961 132.823 272.258 L 132.823 272.258 L 132.823 272.258 Q 131.175 271.555 129.945 270.325 L 129.945 270.325 L 129.945 270.325 Q 128.714 269.094 128.011 267.446 L 128.011 267.446 L 128.011 267.446 Q 127.308 265.798 127.308 263.953 L 127.308 263.953 L 127.308 218.953 L 127.308 218.953 Q 127.308 217.107 128.011 215.459 L 128.011 215.459 L 128.011 215.459 Q 128.714 213.811 129.945 212.603 L 129.945 212.603 L 129.945 212.603 Q 131.175 211.394 132.823 210.669 L 132.823 210.669 L 132.823 210.669 Q 134.471 209.944 136.317 209.944 L 136.317 209.944 L 172.308 209.944 L 172.308 209.944 Q 174.154 209.944 175.802 210.669 L 175.802 210.669 L 175.802 210.669 Q 177.45 211.394 178.68 212.603 L 178.68 212.603 L 178.68 212.603 Q 179.911 213.811 180.614 215.459 L 180.614 215.459 L 180.614 215.459 Q 181.317 217.107 181.317 218.953 L 181.317 218.953 Z  M 172.308 218.953 L 136.317 218.953 L 136.317 263.953 L 172.308 263.953 L 172.308 218.953 Z  M 261.498 218.953 L 261.498 263.953 L 261.498 263.953 Q 261.498 265.798 260.794 267.446 L 260.794 267.446 L 260.794 267.446 Q 260.091 269.094 258.861 270.325 L 258.861 270.325 L 258.861 270.325 Q 257.63 271.555 255.982 272.258 L 255.982 272.258 L 255.982 272.258 Q 254.334 272.961 252.489 272.961 L 252.489 272.961 L 216.498 272.961 L 216.498 272.961 Q 214.652 272.961 213.004 272.258 L 213.004 272.258 L 213.004 272.258 Q 211.356 271.555 210.125 270.325 L 210.125 270.325 L 210.125 270.325 Q 208.895 269.094 208.192 267.446 L 208.192 267.446 L 208.192 267.446 Q 207.489 265.798 207.489 263.953 L 207.489 263.953 L 207.489 218.953 L 207.489 218.953 Q 207.489 217.107 208.192 215.459 L 208.192 215.459 L 208.192 215.459 Q 208.895 213.811 210.125 212.603 L 210.125 212.603 L 210.125 212.603 Q 211.356 211.394 213.004 210.669 L 213.004 210.669 L 213.004 210.669 Q 214.652 209.944 216.498 209.944 L 216.498 209.944 L 252.489 209.944 L 252.489 209.944 Q 254.334 209.944 255.982 210.669 L 255.982 210.669 L 255.982 210.669 Q 257.63 211.394 258.861 212.603 L 258.861 212.603 L 258.861 212.603 Q 260.091 213.811 260.794 215.459 L 260.794 215.459 L 260.794 215.459 Q 261.498 217.107 261.498 218.953 L 261.498 218.953 Z  M 252.489 218.953 L 216.498 218.953 L 216.498 263.953 L 252.489 263.953 L 252.489 218.953 Z  M 296.678 224.094 L 296.678 272.961 L 287.669 272.961 L 287.669 209.944 L 296.678 209.944 L 334.559 258.811 L 334.559 209.944 L 343.568 209.944 L 343.568 272.961 L 334.559 272.961 L 296.678 224.094 Z " fill-rule="evenodd" fill="none" vector-effect="non-scaling-stroke" stroke-width="1" stroke="rgb(0,0,0)" stroke-linejoin="miter" stroke-linecap="square" stroke-miterlimit="3"/></g></svg>