<?xml version="1.0" standalone="no"?><!-- Generator: Gravit.io --><svg xmlns="http://www.w3.org/2000/svg" xmlns:xlink="http://www.w3.org/1999/xlink" style="isolation:isolate" viewBox="0 0 800 800" width="800" height="800"><g id="null"><path d=" M 44.905 413.698 C 44.905 415.039 45.097 416.38 45.097 417.913 C 45.097 419.254 45.288 420.787 45.288 422.128 L 45.863 430.557 C 46.055 432.09 46.055 433.431 46.246 434.772 C 46.438 437.454 46.821 440.136 47.012 442.627 C 47.396 445.309 47.587 447.8 47.97 450.29 L 49.12 457.762 C 74.399 613.76 200.045 734.09 356.99 752.605 C 359.672 752.988 362.163 753.179 364.845 753.371 C 366.186 753.562 367.527 753.562 368.868 753.754 L 377.489 754.329 C 378.83 754.329 380.363 754.52 381.704 754.52 C 383.045 754.52 384.578 754.712 386.11 754.712 C 390.708 754.904 395.306 754.904 399.521 754.904 C 403.927 754.904 408.525 754.904 413.315 754.712 C 417.53 754.52 422.128 754.329 426.534 753.946 C 430.557 753.562 434.963 753.179 439.753 752.796 L 439.945 752.796 C 444.159 752.221 448.183 751.838 452.206 751.263 C 454.888 750.88 457.57 750.497 460.252 749.922 C 462.934 749.539 465.425 748.964 468.107 748.39 C 634.208 716.013 754.712 569.262 754.712 399.713 C 754.712 203.917 595.317 44.522 399.521 44.522 C 229.972 44.522 83.413 165.026 50.844 331.318 C 50.269 333.809 49.886 336.491 49.503 339.173 C 49.12 341.855 48.545 344.537 48.162 347.22 C 47.587 351.051 47.012 354.883 46.629 359.098 C 46.629 359.481 46.629 359.672 46.438 360.056 C 45.863 364.653 45.48 368.868 45.288 372.891 C 44.905 377.489 44.713 381.896 44.522 386.11 C 44.33 390.9 44.33 395.498 44.33 399.904 L 44.905 413.698 L 44.905 413.698 Z  M 616.007 233.804 C 645.894 233.804 670.033 258.135 670.033 287.83 C 670.033 317.716 645.702 341.855 616.007 341.855 C 586.312 341.855 561.982 317.525 561.982 287.83 C 561.79 258.135 586.121 233.804 616.007 233.804 L 616.007 233.804 Z  M 556.809 493.013 C 601.447 493.013 637.848 529.413 637.848 574.051 C 637.848 618.69 601.447 655.09 556.809 655.09 C 512.171 655.09 475.77 618.69 475.77 574.051 C 475.77 529.413 511.979 493.013 556.809 493.013 Z  M 358.906 210.623 C 399.138 210.623 431.898 243.383 431.898 283.615 C 431.898 323.847 399.138 356.607 358.906 356.607 C 318.674 356.607 285.914 323.847 285.914 283.615 C 285.914 243.383 318.674 210.623 358.906 210.623 Z  M 169.433 165.984 C 197.212 165.984 219.627 188.591 219.627 216.178 C 219.627 243.958 197.02 266.373 169.433 266.373 C 141.653 266.373 119.238 243.766 119.238 216.178 C 119.238 188.591 141.845 165.984 169.433 165.984 Z  M 203.342 425.001 C 249.705 425.001 287.446 462.743 287.446 509.105 C 287.446 555.468 249.705 593.209 203.342 593.209 C 156.98 593.209 119.238 555.468 119.238 509.105 C 119.238 462.743 156.98 425.001 203.342 425.001 Z " fill="rgb(254,215,16)"/><path d=" M 12.336 414.848 C 12.336 416.38 12.528 417.913 12.528 419.446 C 12.528 420.978 12.719 422.511 12.719 424.043 L 13.294 433.048 C 13.486 434.58 13.486 436.305 13.677 437.837 C 13.869 440.711 14.252 443.585 14.635 446.458 L 15.785 454.696 C 16.168 457.379 16.551 460.061 17.126 462.934 C 30.153 543.207 67.703 616.199 125.561 674.056 C 183.418 731.914 256.41 769.464 336.874 782.491 C 339.556 782.874 342.238 783.257 345.112 783.832 L 353.158 784.982 C 356.032 785.365 358.906 785.556 361.78 785.94 C 363.312 786.131 365.037 786.323 366.569 786.323 C 369.634 786.514 372.7 786.706 375.765 787.089 C 377.298 787.281 378.83 787.281 380.363 787.281 C 381.896 787.281 383.62 787.472 385.152 787.472 C 390.134 787.664 395.115 787.664 399.904 787.664 C 404.694 787.664 409.675 787.664 414.848 787.472 C 419.445 787.281 424.427 787.089 429.408 786.706 C 433.814 786.323 438.412 785.94 443.393 785.365 L 443.776 785.365 C 448.566 784.79 452.972 784.215 457.378 783.641 C 460.252 783.257 463.126 782.683 466.191 782.3 C 469.065 781.725 471.939 781.342 474.621 780.767 C 656.048 745.324 787.664 585.163 787.664 400.096 C 787.664 186.292 613.708 12.336 399.904 12.336 C 214.646 12.145 54.676 143.761 19.233 325.379 C 18.658 328.253 18.275 330.935 17.701 333.809 C 17.126 336.683 16.743 339.556 16.359 342.622 L 14.635 356.032 L 14.635 356.415 C 14.061 361.397 13.677 365.995 13.294 370.401 C 12.911 375.382 12.719 380.171 12.528 384.961 C 12.336 390.134 12.336 395.115 12.336 399.904 L 12.336 414.848 L 12.336 414.848 Z  M 44.905 386.302 C 45.097 382.087 45.288 377.489 45.671 373.083 C 46.055 369.06 46.438 365.037 46.821 360.247 C 46.821 359.864 46.821 359.672 47.012 359.289 C 47.587 355.074 47.97 351.243 48.545 347.411 C 48.928 344.729 49.311 342.047 49.886 339.365 C 50.269 336.683 50.844 334.001 51.227 331.51 C 83.796 165.409 230.355 44.714 399.904 44.714 C 595.7 44.714 755.095 204.109 755.095 399.904 C 755.095 569.453 634.591 716.013 468.49 748.581 C 465.808 749.156 463.126 749.539 460.635 750.114 C 457.953 750.497 455.271 751.072 452.589 751.455 C 448.757 752.03 444.734 752.605 440.328 752.988 L 440.136 752.988 C 435.347 753.562 430.94 753.946 426.917 754.137 C 422.319 754.52 417.913 754.712 413.698 754.904 C 408.909 755.095 404.311 755.095 399.904 755.095 C 395.498 755.095 391.091 755.095 386.494 754.904 C 384.961 754.904 383.62 754.712 382.087 754.712 C 380.746 754.712 379.213 754.52 377.872 754.52 L 369.251 753.946 C 367.91 753.754 366.569 753.754 365.228 753.562 C 362.546 753.371 360.055 752.988 357.373 752.796 C 354.883 752.413 352.201 752.221 349.902 751.838 L 342.238 750.689 C 191.656 726.166 74.025 608.536 49.503 457.953 C 49.12 455.463 48.737 452.781 48.353 450.482 C 47.97 447.991 47.587 445.309 47.396 442.818 C 47.012 440.136 46.821 437.646 46.629 434.964 C 46.438 433.623 46.438 432.281 46.246 430.749 L 45.671 422.319 C 45.671 420.978 45.48 419.446 45.48 418.104 C 45.48 416.763 45.288 415.422 45.288 413.89 L 45.288 413.698 C 45.097 409.1 45.097 404.502 45.097 400.287 C 44.522 395.498 44.713 390.9 44.905 386.302 L 44.905 386.302 Z  M 169.433 266.373 C 197.212 266.373 219.627 243.766 219.627 216.178 C 219.627 188.399 197.02 165.984 169.433 165.984 C 141.653 165.984 119.238 188.591 119.238 216.178 C 119.238 243.958 141.845 266.373 169.433 266.373 Z  M 169.433 198.553 C 179.203 198.553 187.058 206.408 187.058 216.178 C 187.058 225.949 179.203 233.804 169.433 233.804 C 159.662 233.804 151.807 225.949 151.807 216.178 C 151.807 206.408 159.662 198.553 169.433 198.553 Z  M 203.342 593.401 C 249.705 593.401 287.446 555.659 287.446 509.297 C 287.446 462.934 249.705 425.193 203.342 425.193 C 156.98 425.193 119.238 462.934 119.238 509.297 C 119.238 555.659 156.98 593.401 203.342 593.401 Z  M 203.342 457.57 C 231.696 457.57 254.878 480.751 254.878 509.105 C 254.878 537.459 231.696 560.641 203.342 560.641 C 174.988 560.641 151.807 537.459 151.807 509.105 C 151.807 480.751 174.988 457.57 203.342 457.57 Z  M 358.906 356.799 C 399.138 356.799 431.898 324.038 431.898 283.806 C 431.898 243.574 399.138 210.814 358.906 210.814 C 318.674 210.814 285.914 243.574 285.914 283.806 C 285.914 324.038 318.674 356.799 358.906 356.799 Z  M 358.906 243.191 C 381.129 243.191 399.329 261.391 399.329 283.615 C 399.329 305.838 381.129 324.038 358.906 324.038 C 336.683 324.038 318.482 305.838 318.482 283.615 C 318.482 261.391 336.683 243.191 358.906 243.191 Z  M 556.809 655.09 C 601.447 655.09 637.848 618.69 637.848 574.051 C 637.848 529.413 601.447 493.013 556.809 493.013 C 512.171 493.013 475.77 529.413 475.77 574.051 C 475.77 618.69 511.979 655.09 556.809 655.09 Z  M 556.809 525.581 C 583.63 525.581 605.279 547.422 605.279 574.051 C 605.279 600.681 583.439 622.521 556.809 622.521 C 530.179 622.521 508.339 600.681 508.339 574.051 C 508.339 547.422 529.988 525.581 556.809 525.581 Z  M 616.007 342.047 C 645.894 342.047 670.033 317.716 670.033 288.021 C 670.033 258.135 645.702 233.995 616.007 233.995 C 586.312 233.995 561.982 258.326 561.982 288.021 C 561.79 317.716 586.121 342.047 616.007 342.047 Z  M 616.007 266.373 C 627.885 266.373 637.464 275.952 637.464 287.83 C 637.464 299.708 627.885 309.287 616.007 309.287 C 604.129 309.287 594.55 299.708 594.55 287.83 C 594.359 276.143 604.129 266.373 616.007 266.373 Z " fill="rgb(45,48,51)"/></g></svg>