<?xml version="1.0" standalone="no"?><!-- Generator: Gravit.io --><svg xmlns="http://www.w3.org/2000/svg" xmlns:xlink="http://www.w3.org/1999/xlink" style="isolation:isolate" viewBox="0 0 800 800" width="800" height="800"><g id="null"><path d=" M 399.309 478.844 C 442.813 478.844 478.231 443.426 478.231 399.922 C 478.231 356.418 442.813 321.001 399.309 321.001 C 355.805 321.001 320.388 356.418 320.388 399.922 C 320.549 443.588 355.805 478.844 399.309 478.844 Z " fill="rgb(0,170,209)"/><path d=" M 554.403 291.405 C 564.106 291.405 571.869 283.642 571.869 273.939 C 571.869 264.235 564.106 256.473 554.403 256.473 C 544.699 256.473 536.937 264.235 536.937 273.939 C 536.937 283.642 544.699 291.405 554.403 291.405 Z  M 162.706 561.97 C 162.706 547.9 151.224 536.418 137.154 536.418 C 123.084 536.418 111.601 547.9 111.601 561.97 C 111.601 576.04 123.084 587.523 137.154 587.523 C 151.224 587.523 162.706 576.04 162.706 561.97 Z " fill="rgb(254,215,16)"/><path d=" M 709.011 383.103 C 700.117 383.103 692.839 390.38 692.839 399.275 L 692.839 400.084 C 692.839 408.979 700.117 416.256 709.011 416.256 C 717.906 416.256 725.184 408.979 725.184 400.084 L 725.184 399.437 C 725.184 390.38 717.906 383.103 709.011 383.103 Z  M 706.424 356.58 C 712.276 355.679 717.167 351.649 719.17 346.076 C 721.173 340.504 719.967 334.282 716.027 329.861 C 712.086 325.441 706.044 323.53 700.278 324.882 C 691.828 326.863 686.453 335.166 688.105 343.687 C 689.757 352.207 697.846 357.9 706.424 356.58 L 706.424 356.58 Z  M 719.362 461.701 C 720.979 452.968 715.319 444.396 706.586 442.779 C 697.852 441.162 689.281 446.822 687.664 455.555 C 686.754 460.289 688 465.182 691.065 468.903 C 694.129 472.624 698.692 474.786 703.513 474.801 C 711.114 474.801 717.906 469.464 719.362 461.701 L 719.362 461.701 Z  M 468.689 685.204 C 459.956 687.307 454.619 696.04 456.721 704.773 C 457.722 708.95 460.357 712.552 464.035 714.771 C 467.713 716.99 472.128 717.641 476.29 716.579 C 485.023 714.476 490.36 705.743 488.257 697.01 C 486.155 688.277 477.422 683.102 468.689 685.204 Z  M 352.571 77.444 C 344.171 78.64 338.124 86.125 338.719 94.589 C 339.315 103.053 346.35 109.618 354.835 109.627 C 355.643 109.627 356.452 109.627 357.099 109.465 C 365.994 108.171 372.139 99.923 370.846 91.19 C 369.552 82.457 361.304 76.312 352.571 77.444 L 352.571 77.444 Z  M 86.534 308.548 C 85.151 313.432 86.127 318.681 89.173 322.741 C 92.218 326.802 96.984 329.208 102.059 329.249 C 109.014 329.249 115.483 324.72 117.585 317.604 C 120.011 309.033 115.159 300.138 106.588 297.551 C 98.016 294.963 88.96 299.976 86.534 308.548 L 86.534 308.548 Z  M 475.643 83.104 C 466.91 81.002 458.177 86.338 456.236 95.072 C 454.134 103.805 459.471 112.538 468.204 114.478 C 469.497 114.802 470.791 114.964 471.923 114.964 C 479.201 114.964 485.832 109.95 487.611 102.511 C 489.713 93.939 484.376 85.206 475.643 83.104 Z  M 74.89 369.356 C 74.046 378.242 80.56 386.132 89.445 386.984 L 90.901 386.984 C 99.148 386.984 106.264 380.677 107.073 372.267 C 107.917 363.381 101.403 355.492 92.518 354.639 C 83.631 353.978 75.826 360.495 74.89 369.356 Z  M 687.017 531.242 C 693.486 531.242 699.47 527.361 702.057 521.054 C 705.453 512.806 701.41 503.264 693.001 500.03 C 684.753 496.633 675.373 500.676 671.976 509.086 C 669.94 514.07 670.533 519.742 673.557 524.197 C 676.58 528.651 681.633 531.296 687.017 531.242 L 687.017 531.242 Z  M 650.791 218.467 C 643.351 223.319 641.087 233.346 645.939 240.785 C 649.012 245.475 654.187 248.225 659.524 248.225 C 665.423 248.193 670.839 244.959 673.664 239.78 C 676.489 234.601 676.276 228.296 673.109 223.319 C 668.257 215.718 658.23 213.616 650.791 218.467 L 650.791 218.467 Z  M 579.147 668.385 C 582.381 668.385 585.616 667.414 588.527 665.312 C 593.207 661.961 595.743 656.367 595.181 650.639 C 594.619 644.91 591.043 639.917 585.801 637.539 C 580.559 635.162 574.447 635.761 569.767 639.113 C 562.489 644.288 560.872 654.476 566.047 661.754 C 569.12 666.121 574.133 668.385 579.147 668.385 L 579.147 668.385 Z  M 578.5 163.643 C 583.513 163.643 588.527 161.217 591.761 156.85 C 596.936 149.573 595.157 139.384 587.88 134.209 C 580.602 129.034 570.414 130.813 565.4 138.09 C 561.884 143.008 561.408 149.477 564.166 154.857 C 566.924 160.237 572.454 163.627 578.5 163.643 L 578.5 163.643 Z  M 527.557 134.209 C 533.702 134.209 539.524 130.651 542.273 124.667 C 545.993 116.581 542.435 106.877 534.187 103.319 C 525.939 99.762 516.398 103.158 512.84 111.406 C 509.12 119.492 512.678 129.195 520.926 132.753 C 523.028 133.724 525.292 134.209 527.557 134.209 L 527.557 134.209 Z  M 611.977 174.155 C 605.508 180.3 605.346 190.489 611.492 196.958 C 614.726 200.192 618.931 201.971 623.136 201.971 C 627.179 201.971 631.222 200.516 634.295 197.443 C 640.726 191.28 640.943 181.071 634.78 174.64 C 628.617 168.209 618.408 167.992 611.977 174.155 L 611.977 174.155 Z  M 236.614 682.293 C 239.202 683.749 241.951 684.395 244.7 684.395 C 252.035 684.391 258.452 679.462 260.346 672.376 C 262.24 665.291 259.14 657.817 252.787 654.153 C 245.024 649.625 235.159 652.374 230.63 660.137 C 226.264 668.061 228.851 677.926 236.614 682.293 Z  M 357.746 690.541 C 348.851 689.247 340.765 695.393 339.471 704.288 C 338.177 713.182 344.323 721.269 353.218 722.562 C 354.026 722.724 354.835 722.724 355.482 722.724 C 363.966 722.715 371.002 716.15 371.597 707.687 C 372.193 699.223 366.146 691.738 357.746 690.541 L 357.746 690.541 Z  M 623.621 629.894 C 627.826 629.894 632.192 628.277 635.265 624.881 C 639.252 620.721 640.716 614.75 639.107 609.217 C 637.498 603.685 633.059 599.431 627.463 598.058 C 621.867 596.686 615.963 598.403 611.977 602.563 C 605.831 609.032 605.993 619.221 612.462 625.366 C 615.535 628.277 619.578 629.894 623.621 629.894 Z  M 184.539 623.587 C 181.723 626.823 180.311 631.046 180.615 635.324 C 180.918 639.603 182.912 643.584 186.156 646.39 C 189.229 648.978 192.949 650.272 196.668 650.272 C 201.197 650.272 205.725 648.331 208.959 644.611 C 211.775 641.376 213.187 637.152 212.884 632.874 C 212.58 628.596 210.586 624.614 207.342 621.808 C 200.55 616.148 190.361 616.956 184.539 623.587 Z  M 292.247 92.161 C 285.84 92.137 280.027 95.91 277.439 101.771 C 274.85 107.632 275.978 114.47 280.312 119.19 C 284.645 123.909 291.362 125.615 297.423 123.535 C 299.202 123.535 300.981 123.212 302.76 122.565 C 311.169 119.654 315.697 110.435 312.786 102.026 C 310.037 93.616 300.657 89.249 292.247 92.161 L 292.247 92.161 Z  M 414.349 74.533 C 405.455 74.209 397.854 81.002 397.53 89.896 C 397.311 94.171 398.812 98.355 401.699 101.515 C 404.585 104.676 408.617 106.548 412.894 106.716 L 413.703 106.716 C 422.274 106.716 429.39 99.923 429.875 91.352 C 430.198 82.457 423.244 74.856 414.349 74.533 Z  M 521.411 667.091 C 513.325 670.811 509.767 680.352 513.487 688.6 C 516.236 694.584 522.058 697.98 528.203 697.98 C 530.468 697.98 532.732 697.495 534.996 696.525 C 543.082 692.805 546.64 683.263 542.92 675.015 C 539.201 666.929 529.497 663.371 521.411 667.091 L 521.411 667.091 Z  M 680.71 269.249 C 676.742 270.857 673.575 273.975 671.907 277.918 C 670.239 281.861 670.206 286.306 671.815 290.273 C 675.148 298.552 684.533 302.595 692.839 299.33 C 701.087 295.933 705.13 286.553 701.734 278.305 C 698.338 269.896 688.958 266.014 680.71 269.249 Z  M 293.056 708.169 C 294.835 708.816 296.614 708.978 298.393 708.978 C 305.024 708.978 311.331 704.773 313.757 698.142 C 316.668 689.732 312.14 680.514 303.73 677.603 C 295.32 674.692 286.102 679.22 283.191 687.63 C 281.701 691.658 281.909 696.119 283.769 699.991 C 285.629 703.863 288.98 706.814 293.056 708.169 L 293.056 708.169 Z  M 668.742 553.722 C 661.303 548.87 651.276 550.973 646.424 558.574 C 641.572 566.013 643.675 576.04 651.276 580.892 C 654.025 582.671 656.936 583.479 660.009 583.479 C 665.346 583.479 670.521 580.892 673.594 576.04 C 678.445 568.601 676.181 558.574 668.742 553.722 L 668.742 553.722 Z  M 235.967 118.036 C 232.245 120.191 229.537 123.743 228.444 127.903 C 227.351 132.062 227.963 136.486 230.145 140.193 C 233.218 145.368 238.555 148.279 244.215 148.279 C 246.965 148.279 249.714 147.632 252.302 146.176 C 260.064 141.648 262.652 131.783 258.124 124.02 C 256.012 120.254 252.472 117.497 248.303 116.371 C 244.135 115.245 239.688 115.845 235.967 118.036 L 235.967 118.036 Z  M 185.671 154.101 C 182.427 156.907 180.433 160.888 180.13 165.167 C 179.826 169.445 181.238 173.669 184.054 176.904 C 187.288 180.624 191.817 182.403 196.183 182.403 C 199.903 182.403 203.784 181.109 206.857 178.36 C 213.649 172.538 214.296 162.187 208.474 155.556 C 202.652 148.926 192.302 148.117 185.671 154.101 Z  M 131.332 244.02 C 123.407 239.977 113.704 243.049 109.499 250.974 C 106.899 255.993 107.108 262.005 110.05 266.831 C 112.992 271.657 118.24 274.597 123.892 274.586 C 129.714 274.586 135.375 271.351 138.286 265.853 C 142.329 257.928 139.256 248.225 131.332 244.02 Z  M 165.617 196.149 C 162.259 193.489 157.976 192.283 153.723 192.8 C 149.47 193.316 145.6 195.512 142.976 198.899 C 140.316 202.257 139.11 206.54 139.626 210.793 C 140.143 215.046 142.339 218.916 145.725 221.54 C 148.636 223.804 152.194 224.936 155.752 224.936 C 160.604 224.936 165.294 222.834 168.528 218.791 C 173.865 211.837 172.733 201.648 165.617 196.149 L 165.617 196.149 Z  M 413.541 693.129 C 407.763 693.273 402.501 696.489 399.737 701.565 C 396.973 706.641 397.127 712.806 400.142 717.737 C 403.156 722.669 408.572 725.618 414.349 725.473 L 415.158 725.473 C 424.053 724.988 431.007 717.549 430.522 708.492 C 430.037 699.598 422.436 692.805 413.541 693.129 Z  M 102.221 503.749 C 107.297 503.709 112.063 501.302 115.108 497.242 C 118.153 493.181 119.129 487.932 117.747 483.049 C 115.159 474.477 106.264 469.625 97.693 472.051 C 89.122 474.639 84.27 483.534 86.696 492.105 C 88.798 499.221 95.267 503.749 102.221 503.749 L 102.221 503.749 Z  M 89.607 413.669 C 80.722 414.521 74.207 422.411 75.052 431.297 C 75.86 439.706 82.814 446.014 91.062 446.014 L 92.679 446.014 C 101.564 445.161 108.079 437.271 107.235 428.386 C 106.866 424.09 104.796 420.119 101.486 417.355 C 98.176 414.592 93.9 413.265 89.607 413.669 L 89.607 413.669 Z  M 603.082 416.256 C 611.977 416.256 619.254 408.979 619.254 400.084 L 619.254 399.76 C 619.254 390.866 611.977 383.588 603.082 383.588 C 594.187 383.588 586.909 390.866 586.909 399.76 L 586.909 400.084 C 586.909 408.979 594.187 416.256 603.082 416.256 Z  M 195.698 416.418 C 204.593 416.418 211.87 409.14 211.87 400.246 C 211.87 391.351 204.593 384.073 195.698 384.073 C 186.803 384.073 179.526 391.351 179.526 400.246 C 179.526 409.14 186.803 416.418 195.698 416.418 Z  M 584.484 518.951 C 589.335 511.512 587.071 501.485 579.632 496.633 C 576.04 494.28 571.652 493.468 567.456 494.38 C 563.259 495.292 559.605 497.852 557.314 501.485 C 554.146 506.462 553.934 512.767 556.758 517.946 C 559.583 523.125 564.999 526.359 570.899 526.391 C 576.074 526.229 581.249 523.641 584.484 518.951 L 584.484 518.951 Z  M 307.773 200.031 C 299.687 203.75 296.129 213.292 299.848 221.54 C 302.598 227.524 308.42 230.92 314.565 230.92 C 316.83 230.92 319.094 230.435 321.358 229.465 C 329.444 225.745 333.002 216.203 329.282 207.955 C 325.401 199.869 315.859 196.311 307.773 200.031 L 307.773 200.031 Z  M 255.213 233.993 C 251.968 236.799 249.974 240.78 249.671 245.059 C 249.368 249.337 250.78 253.56 253.595 256.796 C 256.83 260.516 261.358 262.295 265.725 262.295 C 269.444 262.295 273.326 261.001 276.398 258.413 C 280.97 254.688 283.151 248.77 282.091 242.97 C 281.031 237.169 276.898 232.405 271.305 230.537 C 265.712 228.669 259.546 229.993 255.213 233.993 L 255.213 233.993 Z  M 610.359 462.024 C 611.588 457.906 611.116 453.468 609.05 449.7 C 606.983 445.932 603.495 443.149 599.362 441.971 C 595.244 440.742 590.806 441.214 587.038 443.28 C 583.27 445.346 580.487 448.835 579.308 452.968 C 577.897 457.854 578.862 463.118 581.913 467.187 C 584.964 471.255 589.748 473.655 594.834 473.668 C 601.95 473.507 608.419 468.978 610.359 462.024 L 610.359 462.024 Z  M 208.312 327.308 C 199.741 324.882 190.846 329.734 188.259 338.305 C 186.848 343.191 187.812 348.456 190.863 352.524 C 193.915 356.592 198.699 358.992 203.784 359.006 C 210.738 359.006 217.207 354.478 219.31 347.362 C 221.736 338.79 216.884 329.734 208.312 327.308 L 208.312 327.308 Z  M 545.023 543.372 C 539.201 536.579 529.012 535.932 522.22 541.754 C 515.427 547.577 514.78 557.765 520.602 564.558 C 523.837 568.277 528.365 570.056 532.893 570.056 C 536.613 570.056 540.494 568.762 543.567 566.013 C 550.198 560.353 550.845 550.164 545.023 543.372 Z  M 444.43 599.328 C 443.136 590.434 435.05 584.288 426.155 585.582 C 417.26 586.876 411.115 594.962 412.409 603.857 C 413.541 611.943 420.495 617.765 428.419 617.765 C 429.228 617.765 430.037 617.765 430.684 617.603 C 434.949 617.044 438.809 614.791 441.395 611.353 C 443.981 607.915 445.075 603.582 444.43 599.328 L 444.43 599.328 Z  M 278.339 564.719 C 284.161 557.927 283.514 547.738 276.722 541.916 C 269.929 536.094 259.741 536.741 253.919 543.533 C 248.097 550.326 248.744 560.515 255.536 566.337 C 258.609 568.924 262.328 570.218 266.048 570.218 C 270.576 570.218 275.105 568.439 278.339 564.719 Z  M 498.77 578.628 C 495.05 570.541 485.508 566.984 477.26 570.703 C 469.012 574.423 465.616 583.965 469.336 592.213 C 472.085 598.196 477.907 601.593 484.053 601.593 C 486.317 601.593 488.581 601.107 490.845 600.137 C 498.931 596.256 502.489 586.714 498.77 578.628 L 498.77 578.628 Z  M 199.418 442.132 C 190.846 444.72 185.994 453.615 188.42 462.186 C 190.936 470.749 199.902 475.665 208.474 473.183 C 217.046 470.596 221.897 461.701 219.471 453.129 C 218.309 448.987 215.528 445.487 211.755 443.418 C 207.982 441.349 203.536 440.886 199.418 442.132 Z  M 214.296 281.378 C 211.129 286.355 210.916 292.66 213.741 297.839 C 216.566 303.018 221.982 306.252 227.881 306.284 C 235.043 306.265 241.34 301.538 243.357 294.665 C 245.374 287.793 242.631 280.413 236.614 276.526 C 229.013 271.675 218.986 273.777 214.296 281.378 Z  M 590.144 326.661 C 581.572 329.249 576.721 338.143 579.147 346.715 C 581.249 353.669 587.718 358.359 594.672 358.359 C 599.748 358.319 604.514 355.912 607.559 351.852 C 610.604 347.791 611.58 342.542 610.198 337.658 C 607.772 329.087 598.715 324.235 590.144 326.661 L 590.144 326.661 Z  M 354.026 200.678 C 355.158 208.764 362.112 214.586 370.037 214.586 C 370.846 214.586 371.654 214.586 372.301 214.424 C 378.778 213.509 384.067 208.782 385.699 202.448 C 387.332 196.113 384.988 189.419 379.761 185.487 C 374.533 181.554 367.451 181.158 361.818 184.484 C 356.185 187.809 353.109 194.201 354.026 200.678 Z  M 386.533 604.018 C 387.827 595.124 381.681 587.037 372.786 585.744 C 363.891 584.45 355.805 590.595 354.511 599.49 C 353.218 608.385 359.363 616.471 368.258 617.765 C 369.067 617.927 369.875 617.927 370.522 617.927 C 378.578 617.925 385.405 611.995 386.533 604.018 Z  M 412.085 195.988 C 410.791 204.882 416.937 212.969 425.832 214.262 C 426.64 214.424 427.287 214.424 428.096 214.424 C 436.734 214.426 443.848 207.639 444.253 199.01 C 444.658 190.382 438.211 182.958 429.611 182.15 C 421.012 181.342 413.295 187.435 412.085 195.988 L 412.085 195.988 Z  M 469.012 207.793 C 466.71 212.809 467.119 218.651 470.096 223.297 C 473.074 227.943 478.211 230.755 483.729 230.758 C 489.875 230.758 495.697 227.2 498.446 221.217 C 502.166 213.13 498.608 203.427 490.36 199.869 C 482.274 196.149 472.732 199.707 469.012 207.793 L 469.012 207.793 Z  M 228.043 526.552 C 233.942 526.521 239.358 523.286 242.183 518.108 C 245.008 512.929 244.795 506.624 241.628 501.647 C 236.776 494.208 226.749 491.943 219.31 496.795 C 211.87 501.647 209.606 511.674 214.458 519.113 C 217.531 523.803 222.706 526.552 228.043 526.552 L 228.043 526.552 Z  M 329.606 592.213 C 333.325 584.126 329.768 574.423 321.681 570.703 C 313.595 566.984 303.892 570.541 300.172 578.628 C 296.452 586.714 300.01 596.417 308.096 600.137 C 316.228 603.777 325.779 600.259 329.606 592.213 Z  M 288.204 400.084 C 288.204 461.377 338.177 511.35 399.471 511.35 C 460.764 511.35 510.737 461.377 510.737 400.084 C 510.737 338.79 460.764 288.817 399.471 288.817 C 338.177 288.817 288.204 338.629 288.204 400.084 L 288.204 400.084 Z  M 399.309 321.162 C 442.813 321.162 478.231 356.58 478.231 400.084 C 478.231 443.588 442.813 479.005 399.309 479.005 C 355.805 479.005 320.388 443.588 320.388 400.084 C 320.549 356.58 355.805 321.162 399.309 321.162 Z  M 554.403 323.75 C 581.896 323.75 604.214 301.432 604.214 273.939 C 604.214 246.446 581.896 224.128 554.403 224.128 C 526.91 224.128 504.592 246.446 504.592 273.939 C 504.592 301.432 526.91 323.75 554.403 323.75 Z  M 554.403 256.473 C 564.106 256.473 571.869 264.235 571.869 273.939 C 571.869 283.642 564.106 291.405 554.403 291.405 C 544.699 291.405 536.937 283.642 536.937 273.939 C 536.937 264.235 544.699 256.473 554.403 256.473 Z  M 137.315 504.073 C 105.376 504.162 79.507 530.031 79.418 561.97 C 79.418 593.83 105.456 619.867 137.315 619.867 C 169.175 619.867 195.213 593.83 195.213 561.97 C 195.051 530.11 169.175 504.073 137.315 504.073 L 137.315 504.073 Z  M 111.763 561.97 C 111.763 547.9 123.245 536.418 137.315 536.418 C 151.385 536.418 162.868 547.9 162.868 561.97 C 162.868 576.04 151.385 587.523 137.315 587.523 C 123.245 587.523 111.763 576.04 111.763 561.97 Z " fill="rgb(45,48,51)"/></g></svg>