<?xml version="1.0" standalone="no"?><!-- Generator: Gravit.io --><svg xmlns="http://www.w3.org/2000/svg" xmlns:xlink="http://www.w3.org/1999/xlink" style="isolation:isolate" viewBox="0 0 800 800" width="800" height="800"><g id="null"><path d=" M 472.22 622.399 C 463.036 622.399 455.522 614.885 455.522 605.701 L 455.522 505.01 C 454.854 505.01 454.353 505.01 453.685 504.843 C 453.017 504.843 452.516 505.01 451.848 505.01 L 416.448 505.01 L 416.448 638.763 C 416.448 647.948 408.934 655.462 399.75 655.462 C 390.565 655.462 383.051 647.948 383.051 638.763 L 383.051 505.01 L 340.304 505.01 L 340.304 605.701 C 340.304 614.885 332.789 622.399 323.605 622.399 C 314.421 622.399 306.907 614.885 306.907 605.701 L 306.907 539.075 L 278.019 539.075 C 278.019 548.259 270.505 555.773 261.321 555.773 C 233.434 555.773 210.725 578.483 210.725 606.369 C 210.741 621.84 217.825 636.457 229.96 646.054 C 242.095 655.652 257.95 659.178 273.009 655.629 C 278.687 654.293 284.698 655.963 288.873 660.137 C 293.047 664.312 294.55 670.323 293.047 676.001 C 292.046 680.175 291.378 684.35 291.378 688.691 C 291.378 716.578 314.087 739.287 341.973 739.287 C 358.839 739.287 374.535 730.938 383.886 716.912 C 387.059 712.236 392.235 709.564 397.746 709.564 C 403.256 709.564 408.433 712.236 411.605 716.912 C 421.123 730.938 436.82 739.287 453.518 739.287 C 481.404 739.287 504.114 716.578 504.114 688.691 C 504.114 684.35 503.613 680.008 502.444 676.001 C 500.941 670.323 502.611 664.312 506.619 660.137 C 510.793 655.963 516.638 654.293 522.482 655.629 C 537.541 659.178 553.396 655.652 565.531 646.054 C 577.666 636.457 584.751 621.84 584.767 606.369 C 584.767 578.483 562.057 555.773 534.171 555.773 C 524.987 555.773 517.473 548.259 517.473 539.075 L 488.918 539.075 L 488.918 605.701 C 488.918 614.885 481.404 622.399 472.22 622.399 Z " fill="rgb(254,215,16)"/><path d=" M 318.095 471.614 C 307.074 445.564 290.543 401.982 283.696 359.735 L 199.37 413.837 L 199.37 471.447 L 318.095 471.447 L 318.095 471.614 Z  M 512.296 358.733 C 505.617 401.147 488.918 445.23 477.731 471.614 L 600.296 471.614 L 600.296 414.004 L 512.63 357.731 C 512.463 357.898 512.463 358.399 512.296 358.733 L 512.296 358.733 Z  M 397.913 67.682 C 328.615 140.319 298.892 243.682 316.425 353.557 C 323.939 400.312 345.313 451.242 354.497 471.614 L 383.051 471.614 L 383.051 326.171 C 383.051 316.987 390.565 309.473 399.75 309.473 C 408.934 309.473 416.448 316.987 416.448 326.171 L 416.448 471.614 L 441.161 471.614 C 450.345 451.075 471.886 400.312 479.233 353.557 C 496.934 243.515 467.211 140.319 397.913 67.682 L 397.913 67.682 Z  M 397.913 267.059 C 366.353 267.059 340.638 241.344 340.638 209.784 C 340.638 178.224 366.353 152.509 397.913 152.509 C 429.472 152.509 455.188 178.224 455.188 209.784 C 455.188 241.344 429.472 267.059 397.913 267.059 Z " fill="rgb(0,170,209)"/><path d=" M 534.338 555.773 C 562.224 555.773 584.934 578.483 584.934 606.369 C 584.918 621.84 577.833 636.457 565.698 646.054 C 553.563 655.652 537.708 659.178 522.649 655.629 C 516.972 654.293 510.96 655.963 506.786 660.137 C 502.611 664.312 501.108 670.323 502.611 676.001 C 503.613 680.175 504.281 684.35 504.281 688.691 C 504.281 716.578 481.571 739.287 453.685 739.287 C 436.82 739.287 421.123 730.938 411.772 716.912 C 408.6 712.236 403.423 709.564 397.913 709.564 C 392.402 709.564 387.226 712.403 384.053 716.912 C 374.712 730.919 358.977 739.319 342.14 739.287 C 314.254 739.287 291.545 716.578 291.545 688.691 C 291.545 684.35 292.046 680.008 293.214 676.001 C 294.717 670.323 293.047 664.312 289.04 660.137 C 284.865 655.963 279.021 654.126 273.176 655.629 C 269.336 656.631 265.328 656.965 261.488 656.965 C 233.601 656.965 210.892 634.255 210.892 606.369 C 210.892 578.483 233.601 555.773 261.488 555.773 C 270.672 555.773 278.186 548.259 278.186 539.075 C 278.186 529.891 270.672 522.376 261.488 522.376 C 215.138 522.468 177.587 560.019 177.495 606.369 C 177.495 651.621 213.397 688.524 258.148 690.194 C 258.983 735.781 296.22 772.684 342.14 772.684 C 363.013 772.684 382.717 765.003 397.913 751.477 C 413.108 765.003 432.812 772.684 453.685 772.684 C 499.438 772.684 536.843 735.781 537.677 690.194 C 582.429 688.524 618.33 651.454 618.33 606.369 C 618.238 560.019 580.687 522.468 534.338 522.376 C 525.154 522.376 517.64 529.891 517.64 539.075 C 517.64 548.259 525.154 555.773 534.338 555.773 L 534.338 555.773 Z  M 626.011 390.794 L 516.638 320.494 C 519.81 273.238 514.801 226.149 501.776 182.733 C 484.243 124.289 453.518 73.86 410.436 32.782 L 409.602 31.947 C 403.161 25.772 392.998 25.772 386.558 31.947 L 385.723 32.782 C 342.641 73.693 311.916 124.122 294.383 182.733 C 281.192 226.816 276.182 274.741 279.689 322.832 L 173.989 390.794 C 169.146 393.799 166.307 399.143 166.307 404.82 L 166.307 488.312 C 166.307 497.496 173.822 505.01 183.006 505.01 L 306.907 505.01 L 306.907 605.701 C 306.907 614.885 314.421 622.399 323.605 622.399 C 332.789 622.399 340.304 614.885 340.304 605.701 L 340.304 505.01 L 383.051 505.01 L 383.051 638.763 C 383.051 647.948 390.565 655.462 399.75 655.462 C 408.934 655.462 416.448 647.948 416.448 638.763 L 416.448 505.01 L 451.848 505.01 C 452.516 505.01 453.017 505.01 453.685 504.843 C 454.353 504.843 454.854 505.01 455.522 505.01 L 455.522 605.701 C 455.522 614.885 463.036 622.399 472.22 622.399 C 481.404 622.399 488.918 614.885 488.918 605.701 L 488.918 505.01 L 616.994 505.01 C 626.178 505.01 633.693 497.496 633.693 488.312 L 633.693 404.82 C 633.693 399.143 630.687 393.799 626.011 390.794 L 626.011 390.794 Z  M 199.37 413.837 L 283.696 359.735 C 290.543 401.815 307.074 445.397 318.095 471.614 L 199.37 471.614 L 199.37 413.837 Z  M 416.448 471.614 L 416.448 326.171 C 416.448 316.987 408.934 309.473 399.75 309.473 C 390.565 309.473 383.051 316.987 383.051 326.171 L 383.051 471.614 L 354.497 471.614 C 345.313 451.075 323.772 400.312 316.425 353.557 C 298.892 243.682 328.615 140.486 397.913 67.682 C 467.211 140.319 496.934 243.682 479.4 353.557 C 471.886 400.312 450.512 451.242 441.328 471.614 L 416.448 471.614 Z  M 600.296 471.614 L 477.731 471.614 C 488.918 445.23 505.617 401.147 512.296 358.733 C 512.296 358.399 512.463 357.898 512.463 357.564 L 600.129 413.837 L 600.296 471.614 L 600.296 471.614 Z  M 397.913 152.676 C 366.353 152.676 340.638 178.391 340.638 209.951 C 340.638 241.511 366.353 267.226 397.913 267.226 C 429.472 267.226 455.188 241.511 455.188 209.951 C 455.188 178.391 429.472 152.676 397.913 152.676 Z  M 397.913 233.663 C 389.382 233.663 381.499 229.112 377.233 221.723 C 372.968 214.335 372.968 205.233 377.233 197.845 C 381.499 190.457 389.382 185.906 397.913 185.906 C 411.1 185.906 421.791 196.596 421.791 209.784 C 421.791 222.972 411.1 233.663 397.913 233.663 L 397.913 233.663 Z " fill="rgb(45,48,51)"/></g></svg>